{
.appVersion = "3305";
.formatVersion = 3;
classes = (
{
automatic = 1;

glyphs = (
{
glyphname = A;
layers = (
{
anchors = (
{
name = bottom;
pos = (326,0);
},
{
name = ogonek;
pos = (598,0);
},
{
name = top;
pos = (326,710);
}
);
layerId = m01;
shapes = (
{
closed = 1;
nodes = (
(155,0,l),
(223,304,o),
(286,540,o),
(368,710,c),
(274,710,l),
(192,540,o),
(122,304,o),
(54,0,c)
);
},
{
closed = 1;
nodes = (
(530,304,o),
(460,540,o),
(378,710,c),
(284,710,l),
(366,540,o),
(429,304,o),
(497,0,c),
(598,0,l)
);
},
{
closed = 1;
nodes = (
(180,170,l),
(480,170,l),
(480,258,l),
(180,258,l)
);
}
);
width = 652;
}
);
unicode = 65;
},
{
glyphname = AE;
layers = (
{
layerId = m01;
shapes = (
{
closed = 1;
nodes = (
(132,170,l),
(398,170,l),
(398,255,l),
(132,255,l)
);
},
{
closed = 1;
nodes = (
(354,0,l),
(439,0,l),
(439,710,l),
(354,710,l)
);
},
{
closed = 1;
nodes = (
(377,395,l),
(377,307,l),
(671,307,l),
(671,395,l)
);
},
{
closed = 1;
nodes = (
(301,710,l),
(301,625,l),
(695,625,l),
(695,710,l)
);
},
{
closed = 1;
nodes = (
(377,85,l),
(377,0,l),
(703,0,l),
(703,85,l)
);
},
{
closed = 1;
nodes = (
(152,0,l),
(210,277,o),
(277,529,o),
(357,710,c),
(269,710,l),
(187,531,o),
(121,298,o),
(55,0,c)
);
}
);
width = 768;
}
);
unicode = 198;
},
{
glyphname = B;
layers = (
{
anchors = (
{
name = bottom;
pos = (340,0);
},
{
name = center;
pos = (340,355);
},
{
name = top;
pos = (340,710);
}
);
layerId = m01;
shapes = (
{
closed = 1;
nodes = (
(100,0,l),
(198,0,l),
(198,710,l),
(100,710,l)
);
},
{
closed = 1;
nodes = (
(197,350,l),
(264,350,o),
(269,350,o),
(322,350,cs),
(448,350,o),
(557,418,o),
(557,532,cs),
(557,655,o),
(467,710,o),
(322,710,cs),
(282,710,o),
(271,710,o),
(197,710,c),
(197,622,l),
(272,622,o),
(280,622,o),
(322,622,cs),
(412,622,o),
(459,592,o),
(459,519,cs),
(459,443,o),
(412,413,o),
(322,413,cs),
(269,413,o),
(265,413,o),
(197,413,c)
);
},
{
closed = 1;
nodes = (
(197,0,l),
(264,0,o),
(269,0,o),
(322,0,cs),
(462,0,o),
(595,40,o),
(595,199,cs),
(595,342,o),
(452,386,o),
(322,386,cs),
(282,386,o),
(271,386,o),
(197,386,c),
(197,325,l),
(272,325,o),
(280,325,o),
(322,325,cs),
(414,325,o),
(497,306,o),
(497,206,cs),
(497,99,o),
(414,88,o),
(322,88,cs),
(269,88,o),
(265,88,o),
(197,88,c)
);
}
);
width = 670;
}
);
unicode = 66;
},
{
glyphname = C;
layers = (
{
anchors = (
{
name = bottom;
pos = (356,0);
},
{
name = top;
pos = (354,726);
}
);
layerId = m01;
shapes = (
{
closed = 1;
nodes = (
(466,-16,o),
(540,12,o),
(611,72,c),
(556,143,l),
(497,94,o),
(442,74,o),
(371,74,cs),
(241,74,o),
(167,176,o),
(167,352,cs),
(167,531,o),
(238,636,o),
(355,636,cs),
(434,636,o),
(486,596,o),
(522,525,c),
(602,565,l),
(552,672,o),
(473,726,o),
(354,726,cs),
(172,726,o),
(68,587,o),
(68,352,cs),
(68,119,o),
(178,-16,o),
(371,-16,cs)
);
}
);
width = 688;
}
);
unicode = 67;
},
{
glyphname = D;
layers = (
{
anchors = (
{
name = bottom;
pos = (317,0);
},
{
name = top;
pos = (317,710);
}
);
layerId = m01;
shapes = (
{
closed = 1;
nodes = (
(100,0,l),
(198,0,l),
(198,710,l),
(100,710,l)
);
},
{
closed = 1;
nodes = (
(197,0,l),
(221,0,o),
(273,0,o),
(297,0,cs),
(497,0,o),
(614,140,o),
(614,377,cs),
(614,624,o),
(465,710,o),
(303,710,cs),
(268,710,o),
(236,710,o),
(197,710,c),
(197,622,l),
(238,622,o),
(271,622,o),
(303,622,cs),
(432,622,o),
(516,535,o),
(516,377,cs),
(516,241,o),
(470,88,o),
(297,88,cs),
(277,88,o),
(223,88,o),
(197,88,c)
);
}
);
width = 692;
}
);
unicode = 68;
},
{
glyphname = Dcroat;
layers = (
{
layerId = m01;
shapes = (
{
closed = 1;
nodes = (
(50,305,l),
(381,305,l),
(381,391,l),
(50,391,l)
);
},
{
pos = (26,0);
ref = D;
}
);
width = 718;
}
);
unicode = 272;
},
{
glyphname = Eth;
layers = (
{
layerId = m01;
shapes = (
{
closed = 1;
nodes = (
(50,305,l),
(381,305,l),
(381,391,l),
(50,391,l)
);
},
{
pos = (26,0);
ref = D;
}
);
width = 718;
}
);
unicode = 208;
},
{
glyphname = E;
layers = (
{
anchors = (
{
name = bottom;
pos = (330,0);
},
{
name = ogonek;
pos = (555,0);
},
{
name = top;
pos = (330,710);
}
);
layerId = m01;
shapes = (
{
closed = 1;
nodes = (
(100,0,l),
(198,0,l),
(200,710,l),
(102,710,l)
);
},
{
closed = 1;
nodes = (
(126,414,l),
(126,326,l),
(523,326,l),
(523,414,l)
);
},
{
closed = 1;
nodes = (
(128,710,l),
(128,622,l),
(547,622,l),
(547,710,l)
);
},
{
closed = 1;
nodes = (
(126,88,l),
(126,0,l),
(555,0,l),
(555,88,l)
);
}
);
width = 640;
}
);
unicode = 69;
},
{
glyphname = Schwa;
layers = (
{
layerId = m01;
shapes = (
{
closed = 1;
nodes = (
(154,592,l),
(217,624,o),
(267,630,o),
(300,630,cs),
(408,630,o),
(485,541,o),
(493,397,c),
(81,397,l),
(38,189,o),
(117,-16,o),
(324,-16,cs),
(505,-16,o),
(597,104,o),
(597,358,cs),
(597,592,o),
(486,726,o),
(307,726,cs),
(252,726,o),
(193,720,o),
(108,675,c)
);
},
{
closed = 1;
nodes = (
(495,165,o),
(439,84,o),
(327,84,cs),
(218,84,o),
(161,165,o),
(166,305,c),
(493,305,l)
);
}
);
width = 667;
}
);
unicode = 399;
},
{
glyphname = F;
layers = (
{
anchors = (
{
name = bottom;
pos = (330,0);
},
{
name = top;
pos = (330,710);
}
);
layerId = m01;
shapes = (
{
closed = 1;
nodes = (
(100,0,l),
(198,0,l),
(198,710,l),
(100,710,l)
);
},
{
closed = 1;
nodes = (
(126,403,l),
(126,315,l),
(508,315,l),
(508,403,l)
);
},
{
closed = 1;
nodes = (
(126,710,l),
(126,622,l),
(552,622,l),
(552,710,l)
);
}
);
width = 637;
}
);
unicode = 70;
},
{
glyphname = G;
layers = (
{
anchors = (
{
name = bottom;
pos = (374,0);
},
{
name = top;
pos = (362,710);
}
);
layerId = m01;
shapes = (
{
closed = 1;
nodes = (
(351,252,l),
(509,252,l),
(509,64,l),
(607,64,l),
(607,340,l),
(351,340,l)
);
},
{
closed = 1;
nodes = (
(536,702,o),
(465,726,o),
(378,726,cs),
(177,726,o),
(72,587,o),
(72,352,cs),
(72,121,o),
(185,-16,o),
(378,-16,cs),
(472,-16,o),
(537,7,o),
(607,64,c),
(571,153,l),
(513,99,o),
(456,74,o),
(378,74,cs),
(249,74,o),
(170,179,o),
(170,352,cs),
(170,528,o),
(233,635,o),
(380,638,cs),
(426,639,o),
(491,630,o),
(539,596,c),
(584,667,l)
);
}
);
width = 705;
}
);
unicode = 71;
},
{
glyphname = H;
layers = (
{
anchors = (
{
name = bottom;
pos = (366,0);
},
{
name = top;
pos = (366,710);
}
);
layerId = m01;
shapes = (
{
closed = 1;
nodes = (
(100,0,l),
(198,0,l),
(198,710,l),
(100,710,l)
);
},
{
closed = 1;
nodes = (
(534,0,l),
(632,0,l),
(632,710,l),
(534,710,l)
);
},
{
closed = 1;
nodes = (
(137,415,l),
(137,324,l),
(602,324,l),
(602,415,l)
);
}
);
width = 732;
}
);
unicode = 72;
},
{
glyphname = Hbar;
layers = (
{
layerId = m01;
shapes = (
{
pos = (10,0);
ref = H;
},
{
closed = 1;
nodes = (
(40,530,l),
(712,530,l),
(712,604,l),
(40,604,l)
);
}
);
width = 752;
}
);
unicode = 294;
},
{
glyphname = Hcedilla;
layers = (
{
layerId = m01;
shapes = (
{
ref = H;
},
{
closed = 1;
nodes = (
(129,27,l),
(81,-71,l),
(106,-106,l),
(178,-82,o),
(214,-102,o),
(213,-131,cs),
(212,-164,o),
(171,-178,o),
(141,-178,cs),
(115,-178,o),
(76,-170,o),
(42,-149,c),
(17,-202,l),
(49,-223,o),
(93,-238,o),
(139,-238,cs),
(217,-238,o),
(278,-197,o),
(280,-127,cs),
(281,-87,o),
(238,-34,o),
(153,-46,c),
(193,27,l)
);
}
);
width = 732;
}
);
unicode = 7720;
},
{
glyphname = I;
layers = (
{
anchors = (
{
name = bottom;
pos = (299,0);
},
{
name = ogonek;
pos = (504,0);
},
{
name = top;
pos = (299,710);
}
);
layerId = m01;
shapes = (
{
closed = 1;
nodes = (
(348,0,l),
(348,710,l),
(250,710,l),
(250,0,l)
);
},
{
closed = 1;
nodes = (
(499,710,l),
(99,710,l),
(99,622,l),
(499,622,l)
);
},
{
closed = 1;
nodes = (
(504,88,l),
(94,88,l),
(94,0,l),
(504,0,l)
);
}
);
width = 598;
}
);
unicode = 73;
},
{
glyphname = J;
layers = (
{
anchors = (
{
name = bottom;
pos = (309,-16);
},
{
name = top;
pos = (349,710);
}
);
layerId = m01;
shapes = (
{
closed = 1;
nodes = (
(516,710,l),
(418,710,l),
(418,208,ls),
(418,104,o),
(361,73,o),
(280,73,cs),
(208,73,o),
(153,105,o),
(115,124,c),
(68,49,l),
(150,7,o),
(219,-16,o),
(307,-16,cs),
(400,-16,o),
(514,20,o),
(516,202,cs)
);
},
{
closed = 1;
nodes = (
(168,622,l),
(516,622,l),
(516,710,l),
(168,710,l)
);
}
);
width = 616;
}
);
unicode = 74;
},
{
glyphname = K;
layers = (
{
anchors = (
{
name = bottom;
pos = (327,0);
},
{
name = top;
pos = (327,710);
}
);
layerId = m01;
shapes = (
{
closed = 1;
nodes = (
(600,0,l),
(600,10,l),
(299,388,l),
(566,700,l),
(566,710,l),
(455,710,l),
(188,399,l),
(188,710,l),
(90,710,l),
(90,0,l),
(188,0,l),
(188,248,l),
(239,312,l),
(483,0,l)
);
}
);
width = 650;
}
);
unicode = 75;
},
{
glyphname = L;
layers = (
{
anchors = (
{
name = bottom;
pos = (319,0);
},
{
name = center;
pos = (198,355);
},
{
name = top;
pos = (149,710);
},
{
name = topright;
pos = (198,710);
}
);
layerId = m01;
shapes = (
{
closed = 1;
nodes = (
(100,0,l),
(198,0,l),
(198,710,l),
(100,710,l)
);
},
{
closed = 1;
nodes = (
(116,88,l),
(116,0,l),
(538,0,l),
(538,88,l)
);
}
);
width = 614;
}
);
unicode = 76;
},
{
glyphname = Lslash;
layers = (
{
layerId = m01;
shapes = (
{
pos = (44,0);
ref = L;
},
{
closed = 1;
nodes = (
(440,540,l),
(62,317,l),
(62,225,l),
(68,225,l),
(446,448,l),
(446,540,l)
);
}
);
width = 658;
}
);
unicode = 321;
},
{
glyphname = M;
layers = (
{
anchors = (
{
name = bottom;
pos = (416,0);
},
{
name = top;
pos = (416,710);
}
);
layerId = m01;
name = Regular;
shapes = (
{
closed = 1;
nodes = (
(460,260,l),
(534,419,o),
(645,585,o),
(729,710,c),
(624,710,l),
(544,592,o),
(438,419,o),
(374,260,c)
);
},
{
closed = 1;
nodes = (
(100,0,l),
(198,0,l),
(198,710,l),
(100,710,l)
);
},
{
closed = 1;
nodes = (
(634,0,l),
(732,0,l),
(732,710,l),
(634,710,l)
);
},
{
closed = 1;
nodes = (
(394,419,o),
(288,592,o),
(208,710,c),
(103,710,l),
(187,585,o),
(298,419,o),
(372,260,c),
(458,260,l)
);
}
);
width = 832;
}
);
unicode = 77;
},
{
glyphname = N;
layers = (
{
anchors = (
{
name = bottom;
pos = (384,0);
},
{
name = top;
pos = (384,710);
}
);
layerId = m01;
name = Regular;
shapes = (
{
closed = 1;
nodes = (
(218,710,l),
(104,710,l),
(554,0,l),
(664,0,l)
);
},
{
closed = 1;
nodes = (
(100,0,l),
(198,0,l),
(198,710,l),
(100,710,l)
);
},
{
closed = 1;
nodes = (
(570,0,l),
(668,0,l),
(668,710,l),
(570,710,l)
);
}
);
width = 768;
}
);
unicode = 78;
},
{
glyphname = Eng;
layers = (
{
anchors = (
{
name = bottom;
pos = (384,0);
},
{
name = top;
pos = (384,710);
}
);
layerId = m01;
shapes = (
{
closed = 1;
nodes = (
(454,-200,l),
(514,-200,ls),
(668,-200,o),
(668,-124,o),
(668,7,c),
(570,7,l),
(570,-100,o),
(568,-113,o),
(490,-113,cs),
(454,-113,l)
);
},
{
closed = 1;
nodes = (
(218,710,l),
(104,710,l),
(596,-66,l),
(664,0,l)
);
},
{
closed = 1;
nodes = (
(100,0,l),
(198,0,l),
(198,710,l),
(100,710,l)
);
},
{
closed = 1;
nodes = (
(570,0,l),
(668,0,l),
(668,710,l),
(570,710,l)
);
}
);
width = 768;
}
);
unicode = 330;
},
{
glyphname = O;
layers = (
{
anchors = (
{
name = bottom;
pos = (340,0);
},
{
name = ogonek;
pos = (430,0);
},
{
name = top;
pos = (340,710);
},
{
name = topright;
pos = (493,679);
}
);
layerId = m01;
shapes = (
{
closed = 1;
nodes = (
(538,-16,o),
(610,148,o),
(610,355,cs),
(610,562,o),
(538,726,o),
(340,726,cs),
(142,726,o),
(70,562,o),
(70,355,cs),
(70,148,o),
(142,-16,o),
(340,-16,cs)
);
},
{
closed = 1;
nodes = (
(202,73,o),
(169,205,o),
(169,355,cs),
(169,505,o),
(202,637,o),
(340,637,cs),
(478,637,o),
(511,505,o),
(511,355,cs),
(511,205,o),
(478,73,o),
(340,73,cs)
);
}
);
width = 680;
}
);
unicode = 79;
},
{
glyphname = Oslash;
layers = (
{
layerId = m01;
shapes = (
{
ref = O;
},
{
closed = 1;
nodes = (
(144,-86,l),
(628,790,l),
(628,796,l),
(536,796,l),
(52,-80,l),
(52,-86,l)
);
}
);
width = 680;
}
);
unicode = 216;
},
{
glyphname = OE;
layers = (
{
anchors = (
{
name = bottom;
pos = (367,0);
},
{
name = top;
pos = (367,710);
}
);
layerId = m01;
shapes = (
{
closed = 1;
nodes = (
(412,644,l),
(382,686,o),
(341,726,o),
(275,726,cs),
(133,726,o),
(60,580,o),
(60,354,cs),
(60,128,o),
(133,-16,o),
(275,-16,cs),
(338,-16,o),
(377,17,o),
(408,62,c),
(366,147,l),
(355,102,o),
(322,76,o),
(278,76,cs),
(197,76,o),
(155,200,o),
(155,355,cs),
(155,509,o),
(200,634,o),
(278,634,cs),
(321,634,o),
(352,611,o),
(363,572,c)
);
},
{
closed = 1;
nodes = (
(355,660,l),
(355,50,l),
(395,0,l),
(441,0,l),
(441,710,l),
(395,710,l)
);
},
{
closed = 1;
nodes = (
(384,395,l),
(384,307,l),
(678,307,l),
(678,395,l)
);
},
{
closed = 1;
nodes = (
(408,710,l),
(408,625,l),
(702,625,l),
(702,710,l)
);
},
{
closed = 1;
nodes = (
(424,85,l),
(424,0,l),
(710,0,l),
(710,85,l)
);
}
);
width = 775;
}
);
unicode = 338;
},
{
glyphname = P;
layers = (
{
anchors = (
{
name = bottom;
pos = (333,0);
},
{
name = top;
pos = (333,710);
}
);
layerId = m01;
shapes = (
{
closed = 1;
nodes = (
(100,0,l),
(198,0,l),
(198,710,l),
(100,710,l)
);
},
{
closed = 1;
nodes = (
(197,262,l),
(264,262,o),
(320,262,o),
(373,262,cs),
(531,262,o),
(608,350,o),
(608,486,cs),
(608,622,o),
(535,710,o),
(373,710,cs),
(333,710,o),
(271,710,o),
(197,710,c),
(197,622,l),
(272,622,o),
(331,622,o),
(373,622,cs),
(467,622,o),
(512,568,o),
(512,486,cs),
(512,408,o),
(467,350,o),
(373,350,cs),
(320,350,o),
(265,350,o),
(197,350,c)
);
}
);
width = 681;
}
);
unicode = 80;
},
{
glyphname = Thorn;
layers = (
{
anchors = (
{
name = bottom;
pos = (336,0);
},
{
name = top;
pos = (336,710);
}
);
layerId = m01;
shapes = (
{
closed = 1;
nodes = (
(100,0,l),
(198,0,l),
(198,710,l),
(100,710,l)
);
},
{
closed = 1;
nodes = (
(197,143,l),
(264,143,o),
(320,143,o),
(373,143,cs),
(531,143,o),
(608,231,o),
(608,367,cs),
(608,503,o),
(535,591,o),
(373,591,cs),
(333,591,o),
(271,591,o),
(197,591,c),
(197,503,l),
(272,503,o),
(331,503,o),
(373,503,cs),
(467,503,o),
(512,449,o),
(512,367,cs),
(512,289,o),
(467,231,o),
(373,231,cs),
(320,231,o),
(265,231,o),
(197,231,c)
);
}
);
width = 684;
}
);
unicode = 222;
},
{
glyphname = Q;
layers = (
{
anchors = (
{
name = bottom;
pos = (345,0);
},
{
name = top;
pos = (345,710);
}
);
layerId = m01;
name = Regular;
shapes = (
{
closed = 1;
nodes = (
(526,-16,o),
(614,148,o),
(614,355,cs),
(614,562,o),
(544,726,o),
(345,726,cs),
(147,726,o),
(76,562,o),
(76,355,cs),
(76,148,o),
(147,-16,o),
(345,-16,cs)
);
},
{
closed = 1;
nodes = (
(207,73,o),
(174,205,o),
(174,355,cs),
(174,504,o),
(207,637,o),
(345,637,cs),
(483,637,o),
(516,504,o),
(516,355,cs),
(516,205,o),
(483,73,o),
(345,73,cs)
);
},
{
closed = 1;
nodes = (
(634,-19,l),
(505,159,ls),
(458,224,o),
(403,275,o),
(327,275,cs),
(247,275,o),
(186,230,o),
(146,187,c),
(199,127,l),
(223,158,o),
(269,198,o),
(321,198,cs),
(376,198,o),
(418,149,o),
(454,94,cs),
(565,-78,l)
);
}
);
width = 712;
}
);
unicode = 81;
},
{
glyphname = R;
layers = (
{
anchors = (
{
name = bottom;
pos = (335,0);
},
{
name = top;
pos = (325,710);
}
);
layerId = m01;
shapes = (
{
closed = 1;
nodes = (
(100,0,l),
(198,0,l),
(198,710,l),
(100,710,l)
);
},
{
closed = 1;
nodes = (
(197,282,l),
(244,282,o),
(300,282,o),
(353,282,cs),
(511,282,o),
(588,365,o),
(588,496,cs),
(588,632,o),
(515,710,o),
(353,710,cs),
(313,710,o),
(251,710,o),
(197,710,c),
(197,622,l),
(252,622,o),
(311,622,o),
(353,622,cs),
(447,622,o),
(492,578,o),
(492,496,cs),
(492,423,o),
(447,370,o),
(353,370,cs),
(300,370,o),
(245,370,o),
(197,370,c)
);
},
{
closed = 1;
nodes = (
(304,308,l),
(508,0,l),
(615,0,l),
(615,10,l),
(412,308,l)
);
}
);
width = 685;
}
);
unicode = 82;
},
{
glyphname = S;
layers = (
{
anchors = (
{
name = bottom;
pos = (347,0);
},
{
name = top;
pos = (342,710);
}
);
layerId = m01;
shapes = (
{
closed = 1;
nodes = (
(138,30,o),
(239,-16,o),
(346,-16,cs),
(510,-16,o),
(600,62,o),
(600,181,cs),
(600,401,o),
(197,382,o),
(197,531,cs),
(197,595,o),
(277,635,o),
(343,635,cs),
(409,635,o),
(458,616,o),
(513,563,c),
(579,624,l),
(520,689,o),
(433,726,o),
(343,726,cs),
(235,726,o),
(99,658,o),
(99,529,cs),
(99,302,o),
(501,325,o),
(501,181,cs),
(501,115,o),
(440,75,o),
(346,75,cs),
(270,75,o),
(192,107,o),
(135,160,c),
(72,92,l)
);
}
);
width = 672;
}
);
unicode = 83;
},
{
glyphname = Germandbls;
layers = (
{
layerId = m01;
shapes = (
{
closed = 1;
nodes = (
(254,630,o),
(195,584,o),
(195,460,cs),
(195,0,l),
(100,0,l),
(100,480,ls),
(100,676,o),
(236,726,o),
(341,726,cs),
(506,726,o),
(589,612,o),
(586,502,c),
(445,375,l),
(517,355,o),
(578,311,o),
(602,255,cs),
(632,185,o),
(619,93,o),
(551,39,cs),
(491,-8,o),
(391,-18,o),
(282,12,c),
(282,108,l),
(362,83,o),
(432,80,o),
(474,105,cs),
(521,133,o),
(527,194,o),
(504,234,cs),
(479,277,o),
(422,303,o),
(337,315,c),
(337,396,l),
(477,531,l),
(467,587,o),
(414,630,o),
(342,630,cs)
);
}
);
width = 692;
},
{
associatedMasterId = m01;
layerId = "B22CACE7-1D42-449C-9E05-51080D130B0C";
name = "May 7, 24 at 13:28";
shapes = (
{
closed = 1;
nodes = (
(266,669,o),
(195,635,o),
(195,500,cs),
(195,0,l),
(100,0,l),
(100,520,ls),
(100,727,o),
(246,766,o),
(347,766,cs),
(503,766,o),
(588,653,o),
(592,541,c),
(470,409,l),
(609,353,o),
(652,257,o),
(631,164,cs),
(603,38,o),
(506,-51,o),
(293,19,c),
(293,115,l),
(441,56,o),
(518,106,o),
(536,184,cs),
(553,259,o),
(485,333,o),
(353,346,c),
(353,428,l),
(483,571,l),
(470,628,o),
(416,669,o),
(350,669,cs)
);
}
);
visible = 1;
width = 701;
}
);
unicode = 7838;
},
{
glyphname = T;
layers = (
{
anchors = (
{
name = bottom;
pos = (330,0);
},
{
name = top;
pos = (330,710);
}
);
layerId = m01;
shapes = (
{
closed = 1;
nodes = (
(379,0,l),
(379,710,l),
(281,710,l),
(281,0,l)
);
},
{
closed = 1;
nodes = (
(590,710,l),
(70,710,l),
(70,622,l),
(590,622,l)
);
}
);
width = 660;
}
);
unicode = 84;
},
{
glyphname = Tbar;
layers = (
{
layerId = m01;
shapes = (
{
ref = T;
},
{
closed = 1;
nodes = (
(124,330,l),
(536,330,l),
(536,404,l),
(124,404,l)
);
}
);
width = 660;
}
);
unicode = 358;
},
{
glyphname = Tcedilla;
layers = (
{
anchors = (
{
name = bottom;
pos = (330,-238);
}
);
layerId = m01;
shapes = (
{
ref = T;
},
{
closed = 1;
nodes = (
(310,27,l),
(262,-71,l),
(287,-106,l),
(359,-82,o),
(395,-102,o),
(394,-131,cs),
(393,-164,o),
(352,-178,o),
(322,-178,cs),
(296,-178,o),
(257,-170,o),
(223,-149,c),
(198,-202,l),
(230,-223,o),
(274,-238,o),
(320,-238,cs),
(398,-238,o),
(459,-197,o),
(461,-127,cs),
(462,-87,o),
(419,-34,o),
(334,-46,c),
(374,27,l)
);
}
);
width = 660;
}
);
unicode = 354;
},
{
glyphname = U;
layers = (
{
anchors = (
{
name = bottom;
pos = (355,0);
},
{
name = ogonek;
pos = (445,0);
},
{
name = top;
pos = (355,710);
},
{
name = topright;
pos = (552,710);
}
);
layerId = m01;
shapes = (
{
closed = 1;
nodes = (
(510,277,l),
(510,139,o),
(437,83,o),
(355,83,c),
(273,83,o),
(200,139,o),
(200,277,c),
(200,710,l),
(100,710,l),
(100,277,ls),
(100,55,o),
(238,-15,o),
(355,-15,c),
(472,-15,o),
(610,55,o),
(610,277,cs),
(610,710,l),
(510,710,l)
);
}
);
width = 710;
}
);
unicode = 85;
},
{
glyphname = V;
layers = (
{
anchors = (
{
name = bottom;
pos = (336,0);
},
{
name = top;
pos = (336,710);
}
);
layerId = m01;
shapes = (
{
closed = 1;
nodes = (
(132,406,o),
(202,170,o),
(284,0,c),
(378,0,l),
(296,170,o),
(233,406,o),
(165,710,c),
(64,710,l)
);
},
{
closed = 1;
nodes = (
(507,710,l),
(439,406,o),
(376,170,o),
(294,0,c),
(388,0,l),
(470,170,o),
(540,406,o),
(608,710,c)
);
}
);
width = 672;
}
);
unicode = 86;
},
{
glyphname = W;
layers = (
{
anchors = (
{
name = bottom;
pos = (423,0);
},
{
name = top;
pos = (423,710);
}
);
layerId = m01;
shapes = (
{
closed = 1;
nodes = (
(91,396,o),
(128,159,o),
(172,0,c),
(265,0,l),
(223,159,o),
(186,396,o),
(193,710,c),
(95,710,l)
);
},
{
closed = 1;
nodes = (
(380,473,l),
(209,0,l),
(300,0,l),
(464,473,l)
);
},
{
closed = 1;
nodes = (
(546,0,l),
(637,0,l),
(466,473,l),
(382,473,l)
);
},
{
closed = 1;
nodes = (
(653,710,l),
(657,396,o),
(623,159,o),
(581,0,c),
(674,0,l),
(718,159,o),
(752,396,o),
(751,710,c)
);
}
);
width = 846;
}
);
unicode = 87;
},
{
glyphname = X;
layers = (
{
anchors = (
{
name = bottom;
pos = (335,0);
},
{
name = top;
pos = (335,710);
}
);
layerId = m01;
shapes = (
{
closed = 1;
nodes = (
(484,710,l),
(283,343,l),
(389,343,l),
(590,700,l),
(590,710,l)
);
},
{
closed = 1;
nodes = (
(594,10,l),
(388,367,l),
(282,367,l),
(488,0,l),
(594,0,l)
);
},
{
closed = 1;
nodes = (
(76,700,l),
(282,343,l),
(388,343,l),
(182,710,l),
(76,710,l)
);
},
{
closed = 1;
nodes = (
(183,0,l),
(389,367,l),
(283,367,l),
(77,10,l),
(77,0,l)
);
}
);
width = 670;
}
);
unicode = 88;
},
{
glyphname = Y;
layers = (
{
anchors = (
{
name = bottom;
pos = (329,0);
},
{
name = top;
pos = (329,710);
},
{
name = topleft;
pos = (58,710);
}
);
layerId = m01;
shapes = (
{
closed = 1;
nodes = (
(58,700,l),
(280,283,l),
(378,283,l),
(167,710,l),
(58,710,l)
);
},
{
closed = 1;
nodes = (
(491,710,l),
(280,283,l),
(378,283,l),
(600,700,l),
(600,710,l)
);
},
{
closed = 1;
nodes = (
(280,0,l),
(378,0,l),
(378,290,l),
(280,290,l)
);
}
);
width = 658;
}
);
unicode = 89;
},
{
glyphname = Z;
layers = (
{
anchors = (
{
name = bottom;
pos = (326,0);
},
{
name = top;
pos = (326,710);
}
);
layerId = m01;
shapes = (
{
closed = 1;
nodes = (
(91,622,l),
(562,622,l),
(562,710,l),
(91,710,l)
);
},
{
closed = 1;
nodes = (
(85,0,l),
(579,0,l),
(579,88,l),
(85,88,l)
);
},
{
closed = 1;
nodes = (
(202,88,l),
(562,622,l),
(445,622,l),
(85,88,l)
);
}
);
width = 664;
}
);
unicode = 90;
},
{
glyphname = a;
layers = (
{
anchors = (
{
name = bottom;
pos = (308,0);
},
{
name = ogonek;
pos = (561,-8);
},
{
name = top;
pos = (311,550);
}
);
layerId = m01;
shapes = (
{
closed = 1;
nodes = (
(506,413,ls),
(506,554,o),
(381,566,o),
(308,566,cs),
(243,566,o),
(174,552,o),
(105,519,c),
(152,444,l),
(206,470,o),
(247,477,o),
(291,477,cs),
(396,477,o),
(408,437,o),
(408,361,cs),
(408,347,l),
(289,352,o),
(68,340,o),
(68,156,cs),
(68,38,o),
(168,-16,o),
(253,-16,cs),
(342,-16,o),
(394,13,o),
(427,49,c),
(447,9,o),
(484,-11,o),
(561,-8,c),
(561,73,l),
(518,75,o),
(506,95,o),
(506,131,cs)
);
},
{
closed = 1;
nodes = (
(156,269,o),
(301,276,o),
(408,268,c),
(408,156,l),
(385,114,o),
(344,74,o),
(262,74,cs),
(207,74,o),
(156,106,o),
(156,161,cs)
);
}
);
width = 629;
},
{
anchors = (
{
name = bottom;
pos = (308,0);
},
{
name = ogonek;
pos = (561,-8);
},
{
name = top;
pos = (308,550);
}
);
associatedMasterId = m01;
layerId = "2DC7B486-6267-4E95-854D-3F41F4A8C0F5";
name = "May 7, 24 at 13:25";
shapes = (
{
closed = 1;
nodes = (
(506,413,ls),
(506,554,o),
(381,566,o),
(308,566,cs),
(237,566,o),
(154,546,o),
(85,512,c),
(132,437,l),
(191,462,o),
(250,477,o),
(291,477,cs),
(396,477,o),
(408,437,o),
(408,361,cs),
(408,347,l),
(289,352,o),
(68,340,o),
(68,156,cs),
(68,38,o),
(168,-16,o),
(253,-16,cs),
(342,-16,o),
(394,13,o),
(427,49,c),
(447,9,o),
(484,-11,o),
(561,-8,c),
(561,73,l),
(518,75,o),
(506,95,o),
(506,131,cs)
);
},
{
closed = 1;
nodes = (
(156,269,o),
(301,276,o),
(408,268,c),
(408,156,l),
(385,114,o),
(344,74,o),
(262,74,cs),
(207,74,o),
(156,106,o),
(156,161,cs)
);
}
);
visible = 1;
width = 629;
}
);
unicode = 97;
},
{
glyphname = ae;
layers = (
{
anchors = (
{
name = bottom;
pos = (365,0);
},
{
name = top;
pos = (365,550);
}
);
layerId = m01;
shapes = (
{
closed = 1;
nodes = (
(382,405,ls),
(381,536,o),
(315,560,o),
(268,566,cs),
(215,573,o),
(135,544,o),
(76,505,c),
(124,437,l),
(171,468,o),
(229,485,o),
(261,480,cs),
(313,472,o),
(311,406,o),
(311,334,c),
(184,340,o),
(60,293,o),
(60,145,cs),
(60,29,o),
(139,-16,o),
(201,-16,cs),
(281,-16,o),
(338,34,o),
(359,101,c),
(367,118,o),
(375,135,o),
(383,152,c)
);
},
{
closed = 1;
nodes = (
(140,208,o),
(185,264,o),
(312,257,c),
(312,156,l),
(305,105,o),
(262,67,o),
(212,67,cs),
(168,67,o),
(140,101,o),
(140,145,cs)
);
},
{
closed = 1;
nodes = (
(551,-16,o),
(596,-8,o),
(650,41,c),
(605,104,l),
(571,75,o),
(544,65,o),
(506,65,cs),
(432,65,o),
(388,142,o),
(392,238,c),
(653,238,l),
(682,403,o),
(634,566,o),
(494,566,cs),
(393,566,o),
(315,465,o),
(315,273,cs),
(315,124,o),
(370,-16,o),
(506,-16,cs)
);
},
{
closed = 1;
nodes = (
(392,420,o),
(435,484,o),
(493,484,cs),
(561,484,o),
(594,403,o),
(586,312,c),
(391,312,l)
);
}
);
width = 736;
}
);
unicode = 230;
},
{
glyphname = b;
layers = (
{
anchors = (
{
name = bottom;
pos = (350,0);
},
{
name = top;
pos = (350,750);
}
);
layerId = m01;
name = Regular;
shapes = (
{
closed = 1;
nodes = (
(247,750,l),
(152,750,l),
(152,-8,l),
(247,-8,l)
);
},
{
closed = 1;
nodes = (
(529,-16,o),
(602,121,o),
(602,271,cs),
(602,419,o),
(530,558,o),
(387,558,cs),
(251,558,o),
(181,399,o),
(181,271,cs),
(181,131,o),
(254,-16,o),
(387,-16,cs)
);
},
{
closed = 1;
nodes = (
(282,71,o),
(226,174,o),
(226,271,cs),
(226,356,o),
(281,470,o),
(376,470,cs),
(475,470,o),
(508,361,o),
(508,271,cs),
(508,179,o),
(475,71,o),
(376,71,cs)
);
},
{
closed = 1;
nodes = (
(60,692,l),
(247,660,l),
(247,750,l),
(60,750,l)
);
}
);
width = 687;
}
);
unicode = 98;
},
{
glyphname = c;
layers = (
{
anchors = (
{
name = bottom;
pos = (300,0);
},
{
name = top;
pos = (300,550);
}
);
layerId = m01;
name = Regular;
shapes = (
{
closed = 1;
nodes = (
(407,-15,o),
(480,14,o),
(534,62,c),
(484,133,l),
(438,95,o),
(389,71,o),
(327,71,cs),
(215,71,o),
(151,146,o),
(151,273,cs),
(151,402,o),
(213,478,o),
(319,478,cs),
(372,478,o),
(417,451,o),
(441,405,c),
(517,440,l),
(481,519,o),
(407,566,o),
(319,566,cs),
(154,566,o),
(56,457,o),
(56,273,cs),
(56,88,o),
(157,-18,o),
(327,-16,cs)
);
}
);
width = 596;
}
);
unicode = 99;
},
{
glyphname = d;
layers = (
{
anchors = (
{
name = bottom;
pos = (314,0);
},
{
name = top;
pos = (314,750);
}
);
layerId = m01;
name = Regular;
shapes = (
{
closed = 1;
nodes = (
(508,750,l),
(413,750,l),
(413,4,l),
(508,46,l)
);
},
{
closed = 1;
nodes = (
(450,106,l),
(412,80,o),
(373,70,o),
(322,70,cs),
(230,70,o),
(159,150,o),
(159,273,cs),
(159,396,o),
(208,470,o),
(316,470,cs),
(370,470,o),
(424,434,o),
(432,392,c),
(475,392,l),
(468,481,o),
(396,558,o),
(296,558,cs),
(172,558,o),
(64,456,o),
(64,273,cs),
(64,100,o),
(183,-17,o),
(322,-17,cs),
(394,-17,o),
(454,13,o),
(500,43,c)
);
},
{
closed = 1;
nodes = (
(420,70,l),
(439,16,o),
(482,-12,o),
(572,-8,c),
(572,73,l),
(529,75,o),
(508,95,o),
(508,131,c)
);
}
);
width = 664;
}
);
unicode = 100;
},
{
glyphname = dcaron;
layers = (
{
anchors = (
{
name = bottom;
pos = (314,0);
},
{
name = top;
pos = (314,750);
}
);
layerId = m01;
name = Regular;
shapes = (
{
closed = 1;
nodes = (
(508,750,l),
(413,750,l),
(413,4,l),
(508,46,l)
);
},
{
closed = 1;
nodes = (
(450,106,l),
(412,80,o),
(373,70,o),
(322,70,cs),
(230,70,o),
(159,150,o),
(159,273,cs),
(159,396,o),
(208,470,o),
(316,470,cs),
(370,470,o),
(424,434,o),
(432,392,c),
(475,392,l),
(468,481,o),
(396,558,o),
(296,558,cs),
(172,558,o),
(64,456,o),
(64,273,cs),
(64,100,o),
(183,-17,o),
(322,-17,cs),
(394,-17,o),
(454,13,o),
(500,43,c)
);
},
{
closed = 1;
nodes = (
(420,70,l),
(439,16,o),
(482,-12,o),
(572,-8,c),
(572,73,l),
(529,75,o),
(508,95,o),
(508,131,c)
);
},
{
pos = (62,0);
ref = caroncomb.alt;
}
);
width = 725;
}
);
unicode = 271;
},
{
glyphname = dcroat;
layers = (
{
anchors = (
{
name = bottom;
pos = (314,0);
},
{
name = center;
pos = (314,275);
},
{
name = top;
pos = (314,750);
},
{
name = topright;
pos = (508,750);
}
);
layerId = m01;
shapes = (
{
closed = 1;
nodes = (
(508,750,l),
(413,750,l),
(413,4,l),
(508,46,l)
);
},
{
closed = 1;
nodes = (
(450,106,l),
(412,80,o),
(373,70,o),
(322,70,cs),
(231,70,o),
(159,147,o),
(159,267,cs),
(159,387,o),
(211,458,o),
(316,458,cs),
(366,458,o),
(424,422,o),
(432,380,c),
(475,380,l),
(468,469,o),
(391,546,o),
(296,546,cs),
(175,546,o),
(64,447,o),
(64,267,cs),
(64,97,o),
(184,-17,o),
(322,-17,cs),
(394,-17,o),
(454,13,o),
(500,43,c)
);
},
{
closed = 1;
nodes = (
(420,70,l),
(439,16,o),
(482,-12,o),
(572,-8,c),
(572,73,l),
(529,75,o),
(508,95,o),
(508,131,c)
);
},
{
closed = 1;
nodes = (
(268,603,l),
(594,603,l),
(594,677,l),
(268,677,l)
);
}
);
width = 670;
}
);
unicode = 273;
},
{
glyphname = eth;
layers = (
{
anchors = (
{
name = bottom;
pos = (318,0);
},
{
name = top;
pos = (318,750);
}
);
layerId = m01;
shapes = (
{
closed = 1;
nodes = (
(441,130,o),
(386,67,o),
(308,67,cs),
(222,67,o),
(175,130,o),
(175,208,cs),
(175,303,o),
(222,369,o),
(308,369,cs),
(386,369,o),
(441,303,o),
(441,208,cs)
);
},
{
closed = 1;
nodes = (
(80,79,o),
(171,-16,o),
(309,-16,cs),
(498,-16,o),
(558,157,o),
(542,322,cs),
(529,459,o),
(467,623,o),
(210,766,c),
(165,691,l),
(328,604,o),
(430,484,o),
(445,388,c),
(417,424,o),
(362,455,o),
(296,455,cs),
(168,455,o),
(80,348,o),
(80,208,cs)
);
},
{
closed = 1;
nodes = (
(208,491,l),
(491,695,l),
(447,755,l),
(165,550,l)
);
}
);
width = 632;
}
);
unicode = 240;
},
{
glyphname = e;
layers = (
{
anchors = (
{
name = bottom;
pos = (322,0);
},
{
name = ogonek;
pos = (459,0);
},
{
name = top;
pos = (322,550);
}
);
layerId = m01;
name = Regular;
shapes = (
{
closed = 1;
nodes = (
(392,-16,o),
(451,-11,o),
(540,30,c),
(507,106,l),
(440,76,o),
(380,70,o),
(350,70,cs),
(259,70,o),
(182,109,o),
(168,218,c),
(549,218,l),
(593,379,o),
(519,566,o),
(325,566,cs),
(169,566,o),
(70,461,o),
(70,273,cs),
(70,87,o),
(181,-16,o),
(340,-16,cs)
);
},
{
closed = 1;
nodes = (
(164,396,o),
(222,478,o),
(322,478,cs),
(426,478,o),
(482,396,o),
(474,303,c),
(164,303,l)
);
}
);
width = 641;
}
);
unicode = 101;
},
{
glyphname = schwa;
layers = (
{
layerId = m01;
shapes = (
{
closed = 1;
nodes = (
(157,453,l),
(214,475,o),
(264,480,o),
(291,480,cs),
(382,480,o),
(458,436,o),
(473,322,c),
(92,322,l),
(48,161,o),
(122,-16,o),
(316,-16,cs),
(472,-16,o),
(571,89,o),
(571,277,cs),
(571,463,o),
(460,566,o),
(301,566,cs),
(254,566,o),
(201,562,o),
(124,530,c)
);
},
{
closed = 1;
nodes = (
(477,144,o),
(419,72,o),
(319,72,cs),
(215,72,o),
(159,144,o),
(167,237,c),
(477,237,l)
);
}
);
width = 643;
}
);
unicode = 601;
},
{
glyphname = f;
layers = (
{
anchors = (
{
name = bottom;
pos = (324,-200);
},
{
name = top;
pos = (324,750);
}
);
layerId = m01;
name = Regular;
shapes = (
{
closed = 1;
nodes = (
(78,401,l),
(551,401,l),
(551,489,l),
(78,489,l)
);
},
{
closed = 1;
nodes = (
(358,637,o),
(373,678,o),
(458,678,cs),
(493,678,o),
(541,663,o),
(581,639,c),
(624,713,l),
(569,746,o),
(503,766,o),
(441,766,cs),
(388,766,o),
(265,762,o),
(265,604,cs),
(265,587,o),
(265,588,o),
(265,571,c),
(265,376,o),
(265,172,o),
(265,-23,cs),
(265,-64,o),
(255,-110,o),
(182,-110,cs),
(82,-110,l),
(82,-200,l),
(233,-200,ls),
(343,-200,o),
(358,-113,o),
(358,-23,cs),
(358,561,ls)
);
}
);
width = 664;
}
);
unicode = 102;
},
{
glyphname = g;
layers = (
{
anchors = (
{
name = bottom;
pos = (326,-200);
},
{
name = top;
pos = (326,550);
}
);
layerId = m01;
name = Regular;
shapes = (
{
closed = 1;
nodes = (
(242,265,o),
(191,302,o),
(192,368,cs),
(193,423,o),
(238,479,o),
(318,479,cs),
(398,479,o),
(441,423,o),
(442,368,cs),
(443,302,o),
(399,265,o),
(318,265,cs)
);
},
{
closed = 1;
nodes = (
(420,483,l),
(544,483,o),
(580,534,o),
(580,641,c),
(475,641,l),
(475,584,o),
(467,536,o),
(420,536,c)
);
},
{
closed = 1;
nodes = (
(70,-85,l),
(121,-178,o),
(210,-216,o),
(326,-216,cs),
(497,-216,o),
(580,-140,o),
(580,-33,cs),
(580,55,o),
(511,114,o),
(345,114,cs),
(337,114,o),
(323,114,o),
(315,114,cs),
(261,114,o),
(199,116,o),
(199,144,cs),
(199,168,o),
(245,179,o),
(305,182,cs),
(431,188,o),
(537,235,o),
(538,368,cs),
(539,483,o),
(444,566,o),
(318,566,cs),
(190,566,o),
(96,482,o),
(96,368,cs),
(96,297,o),
(135,243,o),
(191,214,c),
(154,205,o),
(101,178,o),
(101,129,cs),
(101,77,o),
(162,29,o),
(300,29,cs),
(355,29,ls),
(458,29,o),
(486,2,o),
(486,-37,cs),
(486,-90,o),
(442,-133,o),
(324,-133,cs),
(252,-133,o),
(184,-114,o),
(144,-45,c)
);
}
);
width = 660;
}
);
unicode = 103;
},
{
glyphname = gcircumflex;
layers = (
{
anchors = (
{
name = bottom;
pos = (326,-200);
},
{
name = top;
pos = (326,550);
}
);
layerId = m01;
shapes = (
{
closed = 1;
nodes = (
(242,265,o),
(191,302,o),
(192,368,cs),
(193,423,o),
(238,479,o),
(318,479,cs),
(398,479,o),
(441,423,o),
(442,368,cs),
(443,302,o),
(399,265,o),
(318,265,cs)
);
},
{
closed = 1;
nodes = (
(70,-85,l),
(121,-178,o),
(210,-216,o),
(326,-216,cs),
(497,-216,o),
(580,-140,o),
(580,-33,cs),
(580,55,o),
(511,114,o),
(345,114,cs),
(337,114,o),
(323,114,o),
(315,114,cs),
(261,114,o),
(199,116,o),
(199,144,cs),
(199,168,o),
(245,179,o),
(305,182,cs),
(431,188,o),
(537,235,o),
(538,368,cs),
(539,483,o),
(444,566,o),
(318,566,cs),
(190,566,o),
(96,482,o),
(96,368,cs),
(96,297,o),
(135,243,o),
(191,214,c),
(154,205,o),
(101,178,o),
(101,129,cs),
(101,77,o),
(162,29,o),
(300,29,cs),
(355,29,ls),
(458,29,o),
(486,2,o),
(486,-37,cs),
(486,-90,o),
(442,-133,o),
(324,-133,cs),
(252,-133,o),
(184,-114,o),
(144,-45,c)
);
},
{
closed = 1;
nodes = (
(491,637,l),
(373,786,l),
(279,786,l),
(279,780,l),
(404,637,l)
);
},
{
closed = 1;
nodes = (
(248,637,l),
(373,780,l),
(373,786,l),
(279,786,l),
(161,637,l)
);
},
{
closed = 1;
nodes = (
(474,611,l),
(471,568,o),
(459,536,o),
(420,536,c),
(420,483,l),
(532,483,o),
(572,525,o),
(579,611,c)
);
}
);
width = 660;
}
);
unicode = 285;
},
{
glyphname = gmacron;
layers = (
{
anchors = (
{
name = bottom;
pos = (326,-200);
},
{
name = top;
pos = (326,550);
}
);
layerId = m01;
shapes = (
{
closed = 1;
nodes = (
(175,643,l),
(469,643,l),
(469,721,l),
(175,721,l)
);
},
{
closed = 1;
nodes = (
(242,265,o),
(191,302,o),
(192,368,cs),
(193,423,o),
(238,479,o),
(318,479,cs),
(398,479,o),
(441,423,o),
(442,368,cs),
(443,302,o),
(399,265,o),
(318,265,cs)
);
},
{
closed = 1;
nodes = (
(70,-85,l),
(121,-178,o),
(210,-216,o),
(326,-216,cs),
(497,-216,o),
(580,-140,o),
(580,-33,cs),
(580,55,o),
(511,114,o),
(345,114,cs),
(337,114,o),
(323,114,o),
(315,114,cs),
(261,114,o),
(199,116,o),
(199,144,cs),
(199,168,o),
(245,179,o),
(305,182,cs),
(431,188,o),
(537,235,o),
(538,368,cs),
(539,483,o),
(444,566,o),
(318,566,cs),
(198,566,o),
(96,482,o),
(96,368,cs),
(96,297,o),
(135,243,o),
(191,214,c),
(154,205,o),
(101,178,o),
(101,129,cs),
(101,77,o),
(162,29,o),
(300,29,cs),
(355,29,ls),
(458,29,o),
(486,2,o),
(486,-37,cs),
(486,-90,o),
(442,-133,o),
(324,-133,cs),
(252,-133,o),
(184,-114,o),
(144,-45,c)
);
},
{
closed = 1;
nodes = (
(474,611,l),
(471,568,o),
(459,536,o),
(420,536,c),
(420,483,l),
(532,483,o),
(572,525,o),
(579,611,c)
);
}
);
width = 660;
}
);
unicode = 7713;
},
{
glyphname = h;
layers = (
{
anchors = (
{
name = bottom;
pos = (365,0);
},
{
name = top;
pos = (348,750);
}
);
layerId = m01;
name = Regular;
shapes = (
{
closed = 1;
nodes = (
(152,0,l),
(247,0,l),
(247,750,l),
(152,700,l)
);
},
{
closed = 1;
nodes = (
(234,372,l),
(303,426,o),
(357,447,o),
(404,447,cs),
(457,447,o),
(483,416,o),
(483,339,cs),
(483,219,o),
(483,120,o),
(483,0,c),
(582,0,l),
(582,129,o),
(582,236,o),
(582,365,cs),
(582,499,o),
(518,543,o),
(437,544,cs),
(366,545,o),
(293,509,o),
(234,466,c)
);
},
{
closed = 1;
nodes = (
(60,692,l),
(247,660,l),
(247,750,l),
(60,750,l)
);
}
);
width = 682;
}
);
unicode = 104;
},
{
glyphname = hbar;
layers = (
{
anchors = (
{
name = bottom;
pos = (330,0);
},
{
name = top;
pos = (330,750);
}
);
layerId = m01;
shapes = (
{
closed = 1;
nodes = (
(134,0,l),
(229,0,l),
(229,750,l),
(134,750,l)
);
},
{
closed = 1;
nodes = (
(216,373,l),
(285,427,o),
(339,448,o),
(386,448,cs),
(439,448,o),
(465,417,o),
(465,340,cs),
(465,220,o),
(465,120,o),
(465,0,c),
(564,0,l),
(564,129,o),
(564,237,o),
(564,366,cs),
(564,500,o),
(500,544,o),
(419,545,cs),
(348,546,o),
(275,510,o),
(216,467,c)
);
},
{
closed = 1;
nodes = (
(60,603,l),
(386,603,l),
(386,677,l),
(60,677,l)
);
}
);
width = 664;
}
);
unicode = 295;
},
{
glyphname = hcedilla;
layers = (
{
layerId = m01;
shapes = (
{
ref = h;
},
{
closed = 1;
nodes = (
(179,27,l),
(131,-71,l),
(156,-106,l),
(228,-82,o),
(264,-102,o),
(263,-131,cs),
(262,-164,o),
(221,-178,o),
(191,-178,cs),
(165,-178,o),
(126,-170,o),
(92,-149,c),
(67,-202,l),
(99,-223,o),
(143,-238,o),
(189,-238,cs),
(267,-238,o),
(328,-197,o),
(330,-127,cs),
(331,-87,o),
(288,-34,o),
(203,-46,c),
(243,27,l)
);
}
);
width = 682;
}
);
unicode = 7721;
},
{
glyphname = i;
layers = (
{
layerId = m01;
shapes = (
{
ref = idotless;
},
{
closed = 1;
nodes = (
(313,606,o),
(348,641,o),
(348,686,cs),
(348,730,o),
(313,766,o),
(268,766,cs),
(225,766,o),
(188,730,o),
(188,686,cs),
(188,641,o),
(225,606,o),
(268,606,cs)
);
}
);
width = 550;
}
);
unicode = 105;
},
{
glyphname = idotless;
layers = (
{
anchors = (
{
name = bottom;
pos = (276,0);
},
{
name = ogonek;
pos = (485,0);
},
{
name = top;
pos = (268,550);
}
);
layerId = m01;
name = Regular;
shapes = (
{
closed = 1;
nodes = (
(122,421,l),
(345,421,l),
(345,509,l),
(122,509,l)
);
},
{
closed = 1;
nodes = (
(247,509,l),
(247,0,l),
(345,0,l),
(345,509,l)
);
},
{
closed = 1;
nodes = (
(73,0,l),
(485,0,l),
(485,88,l),
(73,88,l)
);
}
);
width = 550;
}
);
unicode = 305;
},
{
glyphname = j;
layers = (
{
layerId = m01;
shapes = (
{
ref = jdotless;
},
{
closed = 1;
nodes = (
(354,606,o),
(389,641,o),
(389,686,cs),
(389,730,o),
(354,766,o),
(309,766,cs),
(266,766,o),
(229,730,o),
(229,686,cs),
(229,641,o),
(266,606,o),
(309,606,cs)
);
}
);
width = 502;
}
);
unicode = 106;
},
{
glyphname = jdotless;
layers = (
{
anchors = (
{
name = bottom;
pos = (309,-200);
},
{
name = top;
pos = (309,550);
}
);
layerId = m01;
shapes = (
{
closed = 1;
nodes = (
(113,425,l),
(402,425,l),
(402,513,l),
(113,513,l)
);
},
{
closed = 1;
nodes = (
(304,513,l),
(304,7,ls),
(304,-76,o),
(300,-110,o),
(223,-110,cs),
(40,-110,l),
(40,-200,l),
(244,-200,ls),
(395,-200,o),
(402,-129,o),
(402,7,cs),
(402,513,l)
);
}
);
width = 502;
}
);
unicode = 567;
},
{
glyphname = k;
layers = (
{
anchors = (
{
name = bottom;
pos = (315,0);
},
{
name = top;
pos = (315,750);
}
);
layerId = m01;
name = Regular;
shapes = (
{
closed = 1;
nodes = (
(580,0,l),
(580,10,l),
(323,314,l),
(537,540,l),
(537,550,l),
(423,550,l),
(198,312,l),
(198,750,l),
(100,750,l),
(100,0,l),
(198,0,l),
(198,181,l),
(262,249,l),
(469,0,l)
);
}
);
width = 625;
}
);
unicode = 107;
},
{
glyphname = l;
layers = (
{
anchors = (
{
name = bottom;
pos = (273,0);
},
{
name = center;
pos = (283,355);
},
{
name = top;
pos = (255,750);
},
{
name = topright;
pos = (283,750);
}
);
layerId = m01;
name = Regular;
shapes = (
{
closed = 1;
nodes = (
(185,177,ls),
(185,87,o),
(205,0,o),
(315,0,cs),
(452,0,l),
(452,90,l),
(364,90,ls),
(291,90,o),
(283,136,o),
(283,177,cs),
(283,750,l),
(185,700,l)
);
},
{
closed = 1;
nodes = (
(76,693,l),
(283,654,l),
(283,750,l),
(76,750,l)
);
}
);
width = 528;
}
);
unicode = 108;
},
{
glyphname = lslash;
layers = (
{
layerId = m01;
shapes = (
{
ref = l;
},
{
closed = 1;
nodes = (
(450,540,l),
(72,317,l),
(72,225,l),
(78,225,l),
(456,448,l),
(456,540,l)
);
}
);
width = 528;
}
);
unicode = 322;
},
{
glyphname = m;
layers = (
{
anchors = (
{
name = bottom;
pos = (425,0);
},
{
name = top;
pos = (425,550);
}
);
layerId = m01;
name = Regular;
shapes = (
{
closed = 1;
nodes = (
(92,359,o),
(95,164,o),
(105,0,c),
(200,0,l),
(192,144,o),
(184,276,o),
(191,411,c),
(218,445,o),
(261,473,o),
(304,473,cs),
(343,473,o),
(375,448,o),
(376,352,cs),
(378,77,l),
(474,77,l),
(474,412,ls),
(474,486,o),
(416,564,o),
(341,566,cs),
(277,568,o),
(225,533,o),
(191,499,c),
(184,554,l),
(102,554,l)
);
},
{
closed = 1;
nodes = (
(451,383,l),
(482,424,o),
(529,474,o),
(585,474,cs),
(641,474,o),
(655,427,o),
(658,352,cs),
(663,238,o),
(659,141,o),
(651,0,c),
(750,0,l),
(759,152,o),
(757,316,o),
(749,433,cs),
(743,520,o),
(681,566,o),
(617,566,cs),
(551,566,o),
(490,531,o),
(451,488,c)
);
}
);
width = 852;
},
{
anchors = (
{
name = bottom;
pos = (425,0);
},
{
name = top;
pos = (425,550);
}
);
associatedMasterId = m01;
layerId = "315DDBA6-35F5-46BD-8CB8-5AEB4EECACC6";
name = "May 7, 24 at 13:35";
shapes = (
{
closed = 1;
nodes = (
(97,359,o),
(100,164,o),
(109,0,c),
(208,0,l),
(201,144,o),
(194,288,o),
(200,424,c),
(228,450,o),
(281,488,o),
(317,488,cs),
(356,488,o),
(376,464,o),
(377,413,cs),
(382,77,l),
(470,77,l),
(476,427,l),
(500,450,o),
(553,488,o),
(591,488,cs),
(636,488,o),
(652,458,o),
(654,412,cs),
(659,302,o),
(654,141,o),
(647,0,c),
(746,0,l),
(753,152,o),
(758,308,o),
(748,443,cs),
(742,523,o),
(701,566,o),
(622,566,cs),
(565,566,o),
(502,530,o),
(462,500,c),
(446,540,o),
(412,566,o),
(356,566,cs),
(302,566,o),
(241,533,o),
(199,501,c),
(191,554,l),
(106,554,l)
);
}
);
visible = 1;
width = 852;
},
{
anchors = (
{
name = bottom;
pos = (425,0);
},
{
name = top;
pos = (425,550);
}
);
associatedMasterId = m01;
layerId = "65A41C5B-C4E2-4713-8610-3D91E1AFE2A4";
name = "May 7, 24 at 13:35";
shapes = (
{
closed = 1;
nodes = (
(92,359,o),
(95,164,o),
(105,0,c),
(200,0,l),
(192,144,o),
(184,276,o),
(191,411,c),
(218,445,o),
(261,470,o),
(304,470,cs),
(340,470,o),
(377,448,o),
(377,352,cs),
(376,0,l),
(476,0,l),
(473,412,ls),
(472,486,o),
(416,564,o),
(341,566,cs),
(277,568,o),
(225,533,o),
(191,499,c),
(184,554,l),
(102,554,l)
);
},
{
closed = 1;
nodes = (
(451,383,l),
(482,424,o),
(526,471,o),
(585,471,cs),
(639,471,o),
(655,427,o),
(658,352,cs),
(663,238,o),
(659,141,o),
(651,0,c),
(750,0,l),
(759,152,o),
(757,316,o),
(749,433,cs),
(743,520,o),
(681,566,o),
(617,566,cs),
(551,566,o),
(490,531,o),
(451,488,c)
);
}
);
width = 852;
}
);
unicode = 109;
},
{
glyphname = n;
layers = (
{
anchors = (
{
name = bottom;
pos = (321,0);
},
{
name = top;
pos = (321,550);
}
);
layerId = m01;
shapes = (
{
closed = 1;
nodes = (
(98,0,l),
(194,0,l),
(194,394,l),
(263,448,o),
(317,470,o),
(364,470,cs),
(417,470,o),
(443,438,o),
(443,361,cs),
(443,241,o),
(443,120,o),
(443,0,c),
(542,0,l),
(542,129,o),
(542,248,o),
(542,377,cs),
(542,515,o),
(474,565,o),
(398,566,cs),
(330,567,o),
(251,532,o),
(193,487,c),
(184,554,l),
(98,554,l)
);
}
);
width = 640;
}
);
unicode = 110;
},
{
glyphname = eng;
layers = (
{
anchors = (
{
name = bottom;
pos = (321,0);
},
{
name = top;
pos = (321,550);
}
);
layerId = m01;
shapes = (
{
closed = 1;
nodes = (
(98,0,l),
(194,0,l),
(194,394,l),
(263,448,o),
(317,470,o),
(364,470,cs),
(417,470,o),
(443,438,o),
(443,361,cs),
(443,241,o),
(443,120,o),
(443,0,c),
(542,0,l),
(542,129,o),
(542,248,o),
(542,377,cs),
(542,515,o),
(474,565,o),
(398,566,cs),
(330,567,o),
(251,532,o),
(193,487,c),
(184,554,l),
(98,554,l)
);
},
{
closed = 1;
nodes = (
(328,-200,l),
(392,-200,ls),
(542,-200,o),
(542,-118,o),
(542,7,c),
(443,7,l),
(443,-100,o),
(443,-114,o),
(365,-114,cs),
(328,-114,l)
);
}
);
width = 640;
}
);
unicode = 331;
},
{
glyphname = o;
layers = (
{
anchors = (
{
name = bottom;
pos = (311,0);
},
{
name = ogonek;
pos = (401,0);
},
{
name = top;
pos = (311,550);
},
{
name = topright;
pos = (451,523);
}
);
layerId = m01;
shapes = (
{
closed = 1;
nodes = (
(470,-16,o),
(556,100,o),
(556,275,cs),
(556,450,o),
(471,566,o),
(311,566,cs),
(152,566,o),
(66,450,o),
(66,275,cs),
(66,100,o),
(152,-16,o),
(311,-16,cs)
);
},
{
closed = 1;
nodes = (
(202,71,o),
(161,158,o),
(161,275,cs),
(161,392,o),
(202,478,o),
(311,478,cs),
(420,478,o),
(461,392,o),
(461,275,cs),
(461,158,o),
(420,71,o),
(311,71,cs)
);
}
);
width = 622;
}
);
unicode = 111;
},
{
glyphname = oslash;
layers = (
{
layerId = m01;
shapes = (
{
ref = o;
},
{
closed = 1;
nodes = (
(125,-86,l),
(589,631,l),
(589,637,l),
(497,637,l),
(33,-80,l),
(33,-86,l)
);
}
);
width = 622;
}
);
unicode = 248;
},
{
glyphname = oe;
layers = (
{
anchors = (
{
name = bottom;
pos = (329,0);
},
{
name = top;
pos = (329,550);
}
);
layerId = m01;
shapes = (
{
closed = 1;
nodes = (
(369,-16,o),
(408,131,o),
(408,275,cs),
(408,418,o),
(369,566,o),
(237,566,cs),
(100,566,o),
(60,420,o),
(60,275,cs),
(60,129,o),
(100,-16,o),
(237,-16,cs)
);
},
{
closed = 1;
nodes = (
(151,66,o),
(139,206,o),
(139,276,cs),
(139,345,o),
(150,485,o),
(237,485,cs),
(319,485,o),
(330,345,o),
(330,276,cs),
(330,206,o),
(319,66,o),
(237,66,cs)
);
},
{
closed = 1;
nodes = (
(570,-16,o),
(615,-8,o),
(669,41,c),
(624,104,l),
(590,75,o),
(563,65,o),
(525,65,cs),
(451,65,o),
(407,142,o),
(411,238,c),
(672,238,l),
(701,403,o),
(653,566,o),
(513,566,cs),
(412,566,o),
(334,465,o),
(334,273,cs),
(334,124,o),
(389,-16,o),
(525,-16,cs)
);
},
{
closed = 1;
nodes = (
(411,420,o),
(454,484,o),
(512,484,cs),
(580,484,o),
(613,403,o),
(605,312,c),
(410,312,l)
);
}
);
width = 755;
}
);
unicode = 339;
},
{
glyphname = p;
layers = (
{
anchors = (
{
name = bottom;
pos = (342,0);
},
{
name = top;
pos = (342,550);
}
);
layerId = m01;
shapes = (
{
closed = 1;
nodes = (
(232,566,o),
(154,399,o),
(154,284,cs),
(154,169,o),
(175,-16,o),
(343,-16,cs),
(469,-16,o),
(586,110,o),
(598,280,cs),
(610,457,o),
(520,566,o),
(390,566,cs)
);
},
{
closed = 1;
nodes = (
(476,479,o),
(509,397,o),
(500,280,cs),
(490,153,o),
(430,72,o),
(338,72,cs),
(241,72,o),
(219,184,o),
(219,280,cs),
(219,385,o),
(278,479,o),
(380,479,cs)
);
},
{
closed = 1;
nodes = (
(147,-197,l),
(241,-197,l),
(241,502,l),
(231,558,l),
(147,558,l)
);
},
{
closed = 1;
nodes = (
(54,500,l),
(241,468,l),
(241,502,l),
(231,558,l),
(54,558,l)
);
}
);
width = 679;
}
);
unicode = 112;
},
{
glyphname = thorn;
layers = (
{
layerId = m01;
name = Regular;
shapes = (
{
closed = 1;
nodes = (
(476,-16,o),
(549,121,o),
(549,271,cs),
(549,419,o),
(477,558,o),
(334,558,cs),
(198,558,o),
(128,399,o),
(128,271,cs),
(128,131,o),
(201,-16,o),
(334,-16,cs)
);
},
{
closed = 1;
nodes = (
(229,71,o),
(173,174,o),
(173,271,cs),
(173,356,o),
(228,470,o),
(323,470,cs),
(422,470,o),
(455,361,o),
(455,271,cs),
(455,179,o),
(422,71,o),
(323,71,cs)
);
},
{
closed = 1;
nodes = (
(100,-200,l),
(194,-200,l),
(194,750,l),
(100,750,l)
);
}
);
width = 615;
}
);
unicode = 254;
},
{
glyphname = q;
layers = (
{
anchors = (
{
name = bottom;
pos = (319,0);
},
{
name = top;
pos = (319,550);
}
);
layerId = m01;
name = Regular;
shapes = (
{
closed = 1;
nodes = (
(422,493,l),
(422,-23,l),
(517,-23,l),
(517,558,l),
(432,558,l)
);
},
{
closed = 1;
nodes = (
(139,566,o),
(66,429,o),
(66,279,cs),
(66,131,o),
(138,-8,o),
(281,-8,cs),
(417,-8,o),
(487,151,o),
(487,279,cs),
(487,419,o),
(424,566,o),
(281,566,cs)
);
},
{
closed = 1;
nodes = (
(386,479,o),
(442,376,o),
(442,279,cs),
(442,194,o),
(387,80,o),
(292,80,cs),
(193,80,o),
(160,189,o),
(160,279,cs),
(160,371,o),
(193,479,o),
(292,479,cs)
);
},
{
closed = 1;
nodes = (
(422,-126,o),
(442,-200,o),
(552,-200,cs),
(614,-200,l),
(614,-112,l),
(528,-112,o),
(517,-102,o),
(517,-23,c),
(422,-23,l)
);
}
);
width = 660;
}
);
unicode = 113;
},
{
glyphname = r;
layers = (
{
anchors = (
{
name = bottom;
pos = (269,0);
},
{
name = top;
pos = (301,550);
}
);
layerId = m01;
name = Regular;
shapes = (
{
closed = 1;
nodes = (
(82,558,l),
(82,500,l),
(170,484,l),
(170,0,l),
(268,0,l),
(268,388,l),
(265,484,l),
(255,558,l)
);
},
{
closed = 1;
nodes = (
(66,0,l),
(465,0,l),
(465,88,l),
(66,88,l)
);
},
{
closed = 1;
nodes = (
(564,493,l),
(538,539,o),
(485,565,o),
(428,566,cs),
(349,567,o),
(283,505,o),
(225,447,c),
(225,349,l),
(293,418,o),
(347,474,o),
(404,474,cs),
(438,474,o),
(472,461,o),
(494,434,c)
);
}
);
width = 624;
}
);
unicode = 114;
},
{
glyphname = s;
layers = (
{
anchors = (
{
name = bottom;
pos = (305,0);
},
{
name = top;
pos = (305,550);
}
);
layerId = m01;
shapes = (
{
closed = 1;
nodes = (
(125,22,o),
(214,-15,o),
(304,-15,cs),
(443,-15,o),
(521,47,o),
(521,142,cs),
(521,314,o),
(184,324,o),
(188,411,cs),
(190,450,o),
(246,477,o),
(305,477,cs),
(359,477,o),
(400,456,o),
(445,422,c),
(505,486,l),
(445,537,o),
(388,565,o),
(305,565,cs),
(210,565,o),
(90,510,o),
(90,409,cs),
(90,241,o),
(423,258,o),
(423,141,cs),
(423,101,o),
(382,73,o),
(304,73,cs),
(245,73,o),
(182,101,o),
(129,137,c),
(68,70,l)
);
}
);
width = 589;
}
);
unicode = 115;
},
{
glyphname = germandbls;
layers = (
{
layerId = m01;
shapes = (
{
closed = 1;
nodes = (
(531,351,cs),
(471,387,o),
(392,395,o),
(391,426,cs),
(390,458,o),
(474,476,o),
(505,569,cs),
(534,655,o),
(464,766,o),
(324,766,cs),
(234,766,o),
(100,730,o),
(100,535,cs),
(100,0,l),
(197,0,l),
(197,515,ls),
(197,638,o),
(256,675,o),
(333,669,cs),
(413,663,o),
(428,592,o),
(384,543,cs),
(358,514,o),
(285,478,o),
(285,415,cs),
(285,361,o),
(350,332,o),
(432,303,cs),
(518,273,o),
(525,199,o),
(503,158,cs),
(475,106,o),
(408,67,o),
(285,115,c),
(260,19,l),
(388,-27,o),
(515,-21,o),
(587,99,cs),
(624,161,o),
(636,288,o)
);
}
);
width = 679;
}
);
unicode = 223;
},
{
glyphname = t;
layers = (
{
anchors = (
{
name = bottom;
pos = (353,0);
},
{
name = center;
pos = (292,275);
},
{
name = topright;
pos = (292,750);
}
);
layerId = m01;
name = Regular;
shapes = (
{
closed = 1;
nodes = (
(68,462,l),
(496,462,l),
(496,550,l),
(68,550,l)
);
},
{
closed = 1;
nodes = (
(207,679,l),
(207,177,ls),
(207,87,o),
(227,0,o),
(335,0,cs),
(501,0,l),
(501,90,l),
(386,90,ls),
(313,90,o),
(305,136,o),
(305,177,cs),
(305,679,l)
);
}
);
width = 587;
}
);
unicode = 116;
},
{
glyphname = tbar;
layers = (
{
layerId = m01;
shapes = (
{
ref = t;
},
{
closed = 1;
nodes = (
(80,280,l),
(430,280,l),
(430,354,l),
(80,354,l)
);
}
);
width = 587;
}
);
unicode = 359;
},
{
glyphname = u;
layers = (
{
anchors = (
{
name = bottom;
pos = (333,0);
},
{
name = ogonek;
pos = (599,-8);
},
{
name = top;
pos = (333,550);
},
{
name = topright;
pos = (491,550);
}
);
layerId = m01;
shapes = (
{
closed = 1;
nodes = (
(475,16,o),
(510,-12,o),
(599,-8,c),
(599,73,l),
(556,75,o),
(542,95,o),
(542,131,cs),
(542,550,l),
(446,550,l),
(446,70,l),
(456,70,l)
);
},
{
closed = 1;
nodes = (
(100,206,ls),
(100,42,o),
(169,-15,o),
(260,-16,cs),
(333,-17,o),
(405,25,o),
(465,74,c),
(465,167,l),
(393,103,o),
(340,81,o),
(289,81,cs),
(211,81,o),
(199,155,o),
(199,257,cs),
(199,550,l),
(100,550,l)
);
}
);
width = 689;
}
);
unicode = 117;
},
{
glyphname = v;
layers = (
{
anchors = (
{
name = bottom;
pos = (317,0);
},
{
name = top;
pos = (317,550);
}
);
layerId = m01;
name = Regular;
shapes = (
{
closed = 1;
nodes = (
(133,267,o),
(186,132,o),
(262,0,c),
(363,0,l),
(287,132,o),
(235,267,o),
(167,550,c),
(64,550,l)
);
},
{
closed = 1;
nodes = (
(467,550,l),
(399,267,o),
(347,132,o),
(271,0,c),
(372,0,l),
(448,132,o),
(501,267,o),
(570,550,c)
);
}
);
width = 634;
}
);
unicode = 118;
},
{
glyphname = w;
layers = (
{
anchors = (
{
name = bottom;
pos = (353,0);
},
{
name = top;
pos = (353,550);
}
);
layerId = m01;
shapes = (
{
closed = 1;
nodes = (
(91,307,o),
(115,123,o),
(154,0,c),
(242,0,l),
(205,123,o),
(185,307,o),
(180,550,c),
(84,550,l)
);
},
{
closed = 1;
nodes = (
(312,377,l),
(188,0,l),
(274,0,l),
(386,377,l)
);
},
{
closed = 1;
nodes = (
(432,0,l),
(518,0,l),
(394,377,l),
(320,377,l)
);
},
{
closed = 1;
nodes = (
(526,550,l),
(521,307,o),
(501,123,o),
(464,0,c),
(552,0,l),
(591,123,o),
(615,307,o),
(622,550,c)
);
}
);
width = 706;
}
);
unicode = 119;
},
{
glyphname = x;
layers = (
{
anchors = (
{
name = bottom;
pos = (305,0);
},
{
name = top;
pos = (305,550);
}
);
layerId = m01;
shapes = (
{
closed = 1;
nodes = (
(179,0,l),
(367,310,l),
(262,310,l),
(76,10,l),
(76,0,l)
);
},
{
closed = 1;
nodes = (
(184,550,l),
(81,550,l),
(81,540,l),
(267,240,l),
(372,240,l)
);
},
{
closed = 1;
nodes = (
(534,10,l),
(345,310,l),
(240,310,l),
(431,0,l),
(534,0,l)
);
},
{
closed = 1;
nodes = (
(340,240,l),
(529,540,l),
(529,550,l),
(426,550,l),
(235,240,l)
);
}
);
width = 610;
}
);
unicode = 120;
},
{
glyphname = y;
layers = (
{
anchors = (
{
name = bottom;
pos = (337,-214);
},
{
name = top;
pos = (337,550);
}
);
layerId = m01;
name = Regular;
shapes = (
{
closed = 1;
nodes = (
(135,222,ls),
(134,62,o),
(209,1,o),
(300,0,cs),
(392,-1,o),
(441,49,o),
(499,107,c),
(499,198,l),
(420,134,o),
(380,96,o),
(318,96,cs),
(241,96,o),
(233,171,o),
(233,273,cs),
(233,545,l),
(138,545,l)
);
},
{
closed = 1;
nodes = (
(448,-100,o),
(381,-125,o),
(308,-125,cs),
(178,-125,l),
(178,-215,l),
(359,-215,ls),
(469,-215,o),
(546,-153,o),
(546,-23,cs),
(546,550,l),
(448,550,l),
(448,-23,ls)
);
},
{
closed = 1;
nodes = (
(54,477,l),
(232,451,l),
(232,545,l),
(54,545,l)
);
}
);
width = 646;
}
);
unicode = 121;
},
{
glyphname = ydotbelow;
layers = (
{
anchors = (
{
name = bottom;
pos = (362,-414);
},
{
name = top;
pos = (337,550);
}
);
layerId = m01;
shapes = (
{
closed = 1;
nodes = (
(135,222,ls),
(134,62,o),
(209,1,o),
(300,0,cs),
(392,-1,o),
(441,49,o),
(499,107,c),
(499,198,l),
(420,134,o),
(380,96,o),
(318,96,cs),
(241,96,o),
(233,171,o),
(233,273,cs),
(233,545,l),
(138,545,l)
);
},
{
closed = 1;
nodes = (
(54,477,l),
(232,451,l),
(232,545,l),
(54,545,l)
);
},
{
closed = 1;
nodes = (
(309,-187,l),
(338,-187,ls),
(451,-187,o),
(546,-145,o),
(546,-15,cs),
(546,550,l),
(448,550,l),
(448,-15,ls),
(448,-92,o),
(382,-100,o),
(309,-100,c)
);
},
{
closed = 1;
nodes = (
(226,-210,o),
(256,-180,o),
(256,-141,cs),
(256,-103,o),
(226,-72,o),
(187,-72,cs),
(150,-72,o),
(118,-103,o),
(118,-141,cs),
(118,-180,o),
(150,-210,o),
(187,-210,cs)
);
}
);
width = 646;
}
);
unicode = 7925;
},
{
glyphname = z;
layers = (
{
anchors = (
{
name = bottom;
pos = (301,0);
},
{
name = top;
pos = (301,550);
}
);
layerId = m01;
shapes = (
{
closed = 1;
nodes = (
(82,462,l),
(510,462,l),
(510,550,l),
(82,550,l)
);
},
{
closed = 1;
nodes = (
(76,0,l),
(526,0,l),
(526,88,l),
(76,88,l)
);
},
{
closed = 1;
nodes = (
(202,88,l),
(510,462,l),
(384,462,l),
(76,88,l)
);
}
);
width = 598;
}
);
unicode = 122;
},
{
glyphname = ordfeminine;
layers = (
{
layerId = m01;
shapes = (
{
closed = 1;
nodes = (
(339,629,ls),
(339,711,o),
(263,726,o),
(221,726,cs),
(178,726,o),
(135,717,o),
(98,699,c),
(132,645,l),
(159,657,o),
(192,665,o),
(219,665,cs),
(267,665,o),
(275,642,o),
(275,604,cs),
(275,602,l),
(201,604,o),
(80,585,o),
(80,481,cs),
(80,413,o),
(142,381,o),
(190,381,cs),
(235,381,o),
(261,394,o),
(286,420,c),
(299,395,o),
(323,383,o),
(367,384,c),
(367,442,l),
(342,443,o),
(339,453,o),
(339,474,cs)
);
},
{
closed = 1;
nodes = (
(147,535,o),
(217,546,o),
(274,542,c),
(274,488,l),
(263,468,o),
(237,442,o),
(199,442,cs),
(170,442,o),
(147,459,o),
(147,486,cs)
);
}
);
width = 629;
},
{
associatedMasterId = m01;
layerId = "F2C7145A-7DA6-4752-8C0C-60542C2E61CF";
name = "May 7, 24 at 13:26";
shapes = (
{
closed = 1;
nodes = (
(339,629,ls),
(339,711,o),
(263,726,o),
(221,726,cs),
(178,726,o),
(128,712,o),
(88,692,c),
(124,637,l),
(158,654,o),
(192,664,o),
(219,664,cs),
(267,664,o),
(275,642,o),
(275,604,cs),
(275,602,l),
(201,604,o),
(80,585,o),
(80,481,cs),
(80,413,o),
(142,381,o),
(190,381,cs),
(235,381,o),
(261,394,o),
(286,420,c),
(299,395,o),
(323,383,o),
(367,384,c),
(367,442,l),
(342,443,o),
(339,453,o),
(339,474,cs)
);
},
{
closed = 1;
nodes = (
(147,535,o),
(217,546,o),
(274,542,c),
(274,488,l),
(263,468,o),
(237,442,o),
(199,442,cs),
(170,442,o),
(147,459,o),
(147,486,cs)
);
}
);
visible = 1;
width = 629;
}
);
unicode = 170;
},
{
glyphname = ordmasculine;
layers = (
{
layerId = m01;
shapes = (
{
closed = 1;
nodes = (
(323,381,o),
(375,450,o),
(375,554,cs),
(375,658,o),
(325,726,o),
(228,726,cs),
(133,726,o),
(81,658,o),
(81,554,cs),
(81,450,o),
(133,381,o),
(228,381,cs)
);
},
{
closed = 1;
nodes = (
(174,452,o),
(151,493,o),
(151,554,cs),
(151,615,o),
(170,656,o),
(228,656,cs),
(282,656,o),
(305,615,o),
(305,554,cs),
(305,493,o),
(282,452,o),
(228,452,cs)
);
}
);
width = 622;
},
{
associatedMasterId = m01;
layerId = "640D273E-7522-400D-A7A3-B27E148CEC1E";
name = "May 7, 24 at 13:27";
shapes = (
{
closed = 1;
nodes = (
(319,381,o),
(376,450,o),
(376,554,cs),
(376,658,o),
(321,726,o),
(228,726,cs),
(137,726,o),
(80,658,o),
(80,554,cs),
(80,450,o),
(137,381,o),
(228,381,cs)
);
},
{
closed = 1;
nodes = (
(178,452,o),
(151,493,o),
(151,554,cs),
(151,615,o),
(178,656,o),
(228,656,cs),
(278,656,o),
(305,615,o),
(305,554,cs),
(305,493,o),
(278,452,o),
(228,452,cs)
);
}
);
visible = 1;
width = 622;
}
);
unicode = 186;
},
{
glyphname = mu;
layers = (
{
layerId = m01;
shapes = (
{
closed = 1;
nodes = (
(542,0,l),
(542,550,l),
(446,550,l),
(446,0,l)
);
},
{
closed = 1;
nodes = (
(159,266,l),
(159,92,o),
(155,-16,o),
(278,-16,cs),
(351,-16,o),
(405,25,o),
(465,74,c),
(465,167,l),
(393,103,o),
(340,81,o),
(289,81,cs),
(211,81,o),
(199,155,o),
(199,257,cs),
(199,550,l),
(159,550,l)
);
},
{
closed = 1;
nodes = (
(196,-200,l),
(196,550,l),
(100,550,l),
(100,-200,l)
);
}
);
width = 632;
}
);
unicode = 956;
},
{
glyphname = zero;
layers = (
{
layerId = m01;
shapes = (
{
closed = 1;
nodes = (
(523,-16,o),
(580,143,o),
(580,355,cs),
(580,567,o),
(523,726,o),
(325,726,cs),
(127,726,o),
(70,567,o),
(70,355,cs),
(70,143,o),
(127,-16,o),
(325,-16,cs)
);
},
{
closed = 1;
nodes = (
(185,73,o),
(168,194,o),
(168,355,cs),
(168,515,o),
(185,637,o),
(325,637,cs),
(465,637,o),
(482,515,o),
(482,355,cs),
(482,194,o),
(465,73,o),
(325,73,cs)
);
},
{
closed = 1;
nodes = (
(224,108,l),
(510,603,l),
(430,603,l),
(144,108,l)
);
}
);
width = 650;
}
);
unicode = 48;
},
{
glyphname = one;
layers = (
{
layerId = m01;
shapes = (
{
closed = 1;
nodes = (
(271,0,l),
(371,0,l),
(371,710,l),
(294,710,l),
(271,640,l)
);
},
{
closed = 1;
nodes = (
(87,88,l),
(87,0,l),
(540,0,l),
(540,88,l)
);
},
{
closed = 1;
nodes = (
(247,642,o),
(160,591,o),
(80,574,c),
(121,483,l),
(217,506,o),
(294,556,o),
(350,629,c),
(294,710,l)
);
}
);
width = 605;
}
);
unicode = 49;
},
{
glyphname = two;
layers = (
{
layerId = m01;
name = Regular;
shapes = (
{
closed = 1;
nodes = (
(82,0,l),
(540,0,l),
(540,88,l),
(82,88,l)
);
},
{
closed = 1;
nodes = (
(124,566,l),
(175,608,o),
(235,635,o),
(291,635,cs),
(372,635,o),
(421,578,o),
(421,508,cs),
(421,409,o),
(331,339,o),
(258,266,cs),
(82,88,l),
(218,88,l),
(387,266,ls),
(449,332,o),
(519,392,o),
(519,518,cs),
(519,633,o),
(433,724,o),
(309,724,cs),
(213,724,o),
(133,687,o),
(70,630,c)
);
}
);
width = 614;
}
);
unicode = 50;
},
{
glyphname = three;
layers = (
{
layerId = m01;
shapes = (
{
closed = 1;
nodes = (
(533,71,o),
(447,-16,o),
(312,-16,cs),
(208,-16,o),
(146,10,o),
(75,59,c),
(125,133,l),
(170,99,o),
(223,72,o),
(293,72,cs),
(388,72,o),
(435,129,o),
(435,195,cs),
(435,265,o),
(375,319,o),
(277,319,cs),
(257,319,o),
(246,319,o),
(223,319,c),
(223,405,l),
(248,405,o),
(259,405,o),
(279,405,cs),
(375,405,o),
(420,457,o),
(420,530,cs),
(420,600,o),
(365,636,o),
(298,636,cs),
(248,636,o),
(193,611,o),
(150,568,c),
(85,630,l),
(145,691,o),
(223,724,o),
(310,724,cs),
(429,724,o),
(518,650,o),
(518,537,cs),
(518,466,o),
(484,402,o),
(422,365,c),
(485,337,o),
(533,272,o),
(533,195,cs)
);
}
);
width = 623;
}
);
unicode = 51;
},
{
glyphname = four;
layers = (
{
layerId = m01;
shapes = (
{
closed = 1;
nodes = (
(376,0,l),
(474,0,l),
(474,505,l),
(376,505,l)
);
},
{
closed = 1;
nodes = (
(177,523,o),
(124,383,o),
(80,246,c),
(187,246,l),
(224,381,o),
(277,516,o),
(367,700,c),
(367,710,l),
(266,710,l)
);
},
{
closed = 1;
nodes = (
(80,246,l),
(80,158,l),
(564,158,l),
(564,246,l)
);
}
);
width = 640;
}
);
unicode = 52;
},
{
glyphname = five;
layers = (
{
layerId = m01;
name = Regular;
shapes = (
{
closed = 1;
nodes = (
(239,350,o),
(281,363,o),
(321,363,cs),
(394,363,o),
(442,306,o),
(442,223,cs),
(442,128,o),
(381,72,o),
(306,72,cs),
(240,72,o),
(196,92,o),
(151,135,c),
(86,73,l),
(161,9,o),
(225,-16,o),
(312,-16,cs),
(448,-16,o),
(539,81,o),
(539,223,cs),
(539,358,o),
(448,450,o),
(341,450,cs),
(285,450,o),
(236,431,o),
(203,400,c),
(203,330,l)
);
},
{
closed = 1;
nodes = (
(115,622,l),
(505,622,l),
(505,710,l),
(115,710,l)
);
},
{
closed = 1;
nodes = (
(115,710,l),
(115,330,l),
(203,330,l),
(203,710,l)
);
}
);
width = 621;
}
);
unicode = 53;
},
{
glyphname = six;
layers = (
{
layerId = m01;
name = Regular;
shapes = (
{
closed = 1;
nodes = (
(86,90,o),
(176,-15,o),
(321,-15,cs),
(462,-15,o),
(553,80,o),
(553,205,cs),
(553,334,o),
(459,428,o),
(348,428,cs),
(293,428,o),
(247,410,o),
(210,377,c),
(241,476,o),
(302,567,o),
(400,657,c),
(332,726,l),
(169,574,o),
(86,395,o),
(86,239,cs)
);
},
{
closed = 1;
nodes = (
(400,340,o),
(455,284,o),
(455,206,cs),
(455,130,o),
(400,73,o),
(321,73,cs),
(243,73,o),
(188,127,o),
(188,206,cs),
(188,286,o),
(243,340,o),
(321,340,cs)
);
}
);
width = 633;
}
);
unicode = 54;
},
{
glyphname = seven;
layers = (
{
layerId = m01;
shapes = (
{
closed = 1;
nodes = (
(100,646,l),
(574,646,l),
(574,710,l),
(100,710,l)
);
},
{
closed = 1;
nodes = (
(464,646,l),
(380,386,o),
(296,211,o),
(270,0,c),
(377,0,l),
(403,211,o),
(490,390,o),
(574,646,c)
);
},
{
closed = 1;
nodes = (
(100,646,l),
(100,486,l),
(198,486,l),
(198,646,l)
);
},
{
closed = 1;
nodes = (
(187,622,l),
(469,622,l),
(469,710,l),
(187,710,l)
);
}
);
width = 664;
}
);
unicode = 55;
},
{
glyphname = eight;
layers = (
{
layerId = m01;
shapes = (
{
closed = 1;
nodes = (
(434,-16,o),
(562,37,o),
(562,192,cs),
(562,280,o),
(500,346,o),
(433,367,c),
(495,399,o),
(538,445,o),
(538,538,cs),
(538,625,o),
(475,725,o),
(319,725,cs),
(163,725,o),
(100,625,o),
(100,538,cs),
(100,445,o),
(143,399,o),
(205,367,c),
(138,346,o),
(76,280,o),
(76,192,cs),
(76,37,o),
(204,-16,o),
(319,-16,cs)
);
},
{
closed = 1;
nodes = (
(174,266,o),
(233,318,o),
(319,318,cs),
(405,318,o),
(464,266,o),
(464,196,cs),
(464,119,o),
(414,72,o),
(319,72,cs),
(224,72,o),
(174,119,o),
(174,196,cs)
);
},
{
closed = 1;
nodes = (
(197,575,o),
(225,637,o),
(319,637,cs),
(413,637,o),
(443,575,o),
(443,527,cs),
(443,458,o),
(395,413,o),
(320,413,cs),
(245,413,o),
(197,458,o),
(197,527,cs)
);
}
);
width = 638;
}
);
unicode = 56;
},
{
glyphname = nine;
layers = (
{
layerId = m01;
shapes = (
{
closed = 1;
nodes = (
(80,382,o),
(172,283,o),
(292,283,cs),
(365,283,o),
(419,310,o),
(451,362,c),
(433,266,o),
(324,134,o),
(214,54,c),
(279,-15,l),
(450,122,o),
(547,274,o),
(547,463,cs),
(547,628,o),
(451,726,o),
(312,726,cs),
(164,726,o),
(80,631,o),
(80,506,cs)
);
},
{
closed = 1;
nodes = (
(231,371,o),
(176,425,o),
(176,505,cs),
(176,584,o),
(231,638,o),
(309,638,cs),
(388,638,o),
(443,581,o),
(443,505,cs),
(443,427,o),
(388,371,o),
(309,371,cs)
);
}
);
width = 633;
}
);
unicode = 57;
},
{
glyphname = period;
layers = (
{
layerId = m01;
shapes = (
{
closed = 1;
nodes = (
(229,-19,o),
(266,18,o),
(266,64,cs),
(266,110,o),
(229,147,o),
(183,147,cs),
(137,147,o),
(100,110,o),
(100,64,cs),
(100,18,o),
(137,-19,o),
(183,-19,cs)
);
}
);
width = 366;
}
);
unicode = 46;
},
{
glyphname = comma;
layers = (
{
layerId = m01;
name = Regular;
shapes = (
{
closed = 1;
nodes = (
(63,-193,l),
(124,-193,l),
(267,39,l),
(149,39,l)
);
},
{
closed = 1;
nodes = (
(243,0,o),
(276,34,o),
(276,76,cs),
(276,116,o),
(243,151,o),
(203,151,cs),
(160,151,o),
(126,116,o),
(126,76,cs),
(126,34,o),
(160,0,o),
(203,0,cs)
);
}
);
width = 366;
}
);
unicode = 44;
},
{
glyphname = colon;
layers = (
{
layerId = m01;
shapes = (
{
closed = 1;
nodes = (
(216,0,o),
(250,34,o),
(250,75,cs),
(250,116,o),
(216,150,o),
(175,150,cs),
(134,150,o),
(100,116,o),
(100,75,cs),
(100,34,o),
(134,0,o),
(175,0,cs)
);
},
{
closed = 1;
nodes = (
(216,397,o),
(250,431,o),
(250,472,cs),
(250,513,o),
(216,547,o),
(175,547,cs),
(134,547,o),
(100,513,o),
(100,472,cs),
(100,431,o),
(134,397,o),
(175,397,cs)
);
}
);
width = 350;
}
);
unicode = 58;
},
{
glyphname = semicolon;
layers = (
{
layerId = m01;
name = Regular;
shapes = (
{
closed = 1;
nodes = (
(279,400,o),
(313,434,o),
(313,475,cs),
(313,516,o),
(279,550,o),
(238,550,cs),
(197,550,o),
(163,516,o),
(163,475,cs),
(163,434,o),
(197,400,o),
(238,400,cs)
);
},
{
closed = 1;
nodes = (
(100,-193,l),
(161,-193,l),
(304,39,l),
(186,39,l)
);
},
{
closed = 1;
nodes = (
(280,0,o),
(313,34,o),
(313,76,cs),
(313,116,o),
(280,151,o),
(240,151,cs),
(197,151,o),
(163,116,o),
(163,76,cs),
(163,34,o),
(197,0,o),
(240,0,cs)
);
}
);
width = 413;
}
);
unicode = 59;
},
{
glyphname = ellipsis;
layers = (
{
layerId = m01;
shapes = (
{
closed = 1;
nodes = (
(368,-16,o),
(392,8,o),
(392,39,cs),
(392,69,o),
(368,94,o),
(337,94,cs),
(308,94,o),
(282,69,o),
(282,39,cs),
(282,8,o),
(308,-16,o),
(337,-16,cs)
);
},
{
closed = 1;
nodes = (
(186,-16,o),
(210,8,o),
(210,39,cs),
(210,69,o),
(186,94,o),
(155,94,cs),
(126,94,o),
(100,69,o),
(100,39,cs),
(100,8,o),
(126,-16,o),
(155,-16,cs)
);
},
{
closed = 1;
nodes = (
(550,-16,o),
(574,8,o),
(574,39,cs),
(574,69,o),
(550,94,o),
(519,94,cs),
(490,94,o),
(464,69,o),
(464,39,cs),
(464,8,o),
(490,-16,o),
(519,-16,cs)
);
}
);
width = 674;
}
);
unicode = 8230;
},
{
glyphname = exclam;
layers = (
{
layerId = m01;
shapes = (
{
closed = 1;
nodes = (
(223,-27,o),
(258,8,o),
(258,49,cs),
(258,90,o),
(223,125,o),
(182,125,cs),
(141,125,o),
(106,90,o),
(106,49,cs),
(106,8,o),
(141,-27,o),
(182,-27,cs)
);
},
{
closed = 1;
nodes = (
(107,560,o),
(127,375,o),
(135,210,c),
(229,210,l),
(237,375,o),
(257,560,o),
(264,725,c),
(100,725,l)
);
}
);
width = 364;
}
);
unicode = 33;
},
{
glyphname = exclamdown;
layers = (
{
layerId = m01;
shapes = (
{
closed = 1;
nodes = (
(141,552,o),
(106,517,o),
(106,476,cs),
(106,435,o),
(141,400,o),
(182,400,cs),
(223,400,o),
(258,435,o),
(258,476,cs),
(258,517,o),
(223,552,o),
(182,552,cs)
);
},
{
closed = 1;
nodes = (
(264,-200,l),
(257,-35,o),
(237,150,o),
(229,315,c),
(135,315,l),
(127,150,o),
(107,-35,o),
(100,-200,c)
);
}
);
width = 364;
}
);
unicode = 161;
},
{
glyphname = question;
layers = (
{
layerId = m01;
shapes = (
{
closed = 1;
nodes = (
(410,210,l),
(410,235,ls),
(410,359,o),
(628,348,o),
(628,523,cs),
(628,629,o),
(525,726,o),
(359,726,cs),
(252,726,o),
(159,665,o),
(100,598,c),
(171,535,l),
(211,579,o),
(270,628,o),
(362,628,cs),
(476,628,o),
(528,572,o),
(528,521,cs),
(528,415,o),
(311,430,o),
(311,229,cs),
(311,210,l)
);
},
{
closed = 1;
nodes = (
(408,-27,o),
(443,8,o),
(443,49,cs),
(443,90,o),
(408,125,o),
(367,125,cs),
(326,125,o),
(291,90,o),
(291,49,cs),
(291,8,o),
(326,-27,o),
(367,-27,cs)
);
}
);
width = 728;
}
);
unicode = 63;
},
{
glyphname = questiondown;
layers = (
{
layerId = m01;
shapes = (
{
closed = 1;
nodes = (
(318,300,l),
(318,275,ls),
(318,151,o),
(100,162,o),
(100,-13,cs),
(100,-119,o),
(203,-216,o),
(369,-216,cs),
(476,-216,o),
(569,-155,o),
(628,-88,c),
(557,-25,l),
(517,-69,o),
(458,-118,o),
(366,-118,cs),
(252,-118,o),
(200,-62,o),
(200,-11,cs),
(200,95,o),
(417,80,o),
(417,281,cs),
(417,300,l)
);
},
{
closed = 1;
nodes = (
(320,537,o),
(285,502,o),
(285,461,cs),
(285,420,o),
(320,385,o),
(361,385,cs),
(402,385,o),
(437,420,o),
(437,461,cs),
(437,502,o),
(402,537,o),
(361,537,cs)
);
}
);
width = 728;
}
);
unicode = 191;
},
{
glyphname = periodcentered;
layers = (
{
layerId = m01;
shapes = (
{
closed = 1;
nodes = (
(229,267,o),
(266,304,o),
(266,350,cs),
(266,396,o),
(229,433,o),
(183,433,cs),
(137,433,o),
(100,396,o),
(100,350,cs),
(100,304,o),
(137,267,o),
(183,267,cs)
);
}
);
width = 366;
}
);
unicode = 183;
},
{
glyphname = bullet;
layers = (
{
layerId = m01;
shapes = (
{
closed = 1;
nodes = (
(294,224,o),
(350,281,o),
(350,350,cs),
(350,419,o),
(294,474,o),
(225,474,cs),
(156,474,o),
(100,419,o),
(100,350,cs),
(100,281,o),
(156,224,o),
(225,224,cs)
);
}
);
width = 450;
}
);
unicode = 8226;
},
{
glyphname = asterisk;
layers = (
{
layerId = m01;
shapes = (
{
closed = 1;
nodes = (
(316,292,l),
(372,292,l),
(394,534,l),
(294,534,l)
);
},
{
closed = 1;
nodes = (
(336,317,l),
(354,263,l),
(588,317,l),
(558,411,l)
);
},
{
closed = 1;
nodes = (
(100,317,l),
(334,263,l),
(352,317,l),
(130,411,l)
);
},
{
closed = 1;
nodes = (
(242,58,l),
(368,275,l),
(322,309,l),
(160,117,l)
);
},
{
closed = 1;
nodes = (
(367,309,l),
(321,275,l),
(447,58,l),
(529,117,l)
);
}
);
width = 688;
}
);
unicode = 42;
},
{
glyphname = numbersign;
layers = (
{
layerId = m01;
shapes = (
{
closed = 1;
nodes = (
(100,244,l),
(100,157,l),
(562,157,l),
(562,244,l)
);
},
{
closed = 1;
nodes = (
(166,550,l),
(166,463,l),
(624,463,l),
(624,550,l)
);
},
{
closed = 1;
nodes = (
(401,710,l),
(311,710,l),
(139,0,l),
(229,0,l)
);
},
{
closed = 1;
nodes = (
(595,710,l),
(505,710,l),
(333,0,l),
(423,0,l)
);
}
);
width = 724;
}
);
unicode = 35;
},
{
glyphname = slash;
layers = (
{
layerId = m01;
shapes = (
{
closed = 1;
nodes = (
(100,-110,l),
(100,-120,l),
(201,-120,l),
(466,740,l),
(466,750,l),
(365,750,l)
);
}
);
width = 566;
}
);
unicode = 47;
},
{
glyphname = backslash;
layers = (
{
layerId = m01;
shapes = (
{
closed = 1;
nodes = (
(100,750,l),
(100,740,l),
(365,-120,l),
(466,-120,l),
(466,-110,l),
(201,750,l)
);
}
);
width = 566;
}
);
unicode = 92;
},
{
glyphname = twodotenleader;
layers = (
{
layerId = m01;
shapes = (
{
closed = 1;
nodes = (
(186,-16,o),
(210,8,o),
(210,39,cs),
(210,69,o),
(186,94,o),
(155,94,cs),
(126,94,o),
(100,69,o),
(100,39,cs),
(100,8,o),
(126,-16,o),
(155,-16,cs)
);
},
{
closed = 1;
nodes = (
(446,-16,o),
(470,8,o),
(470,39,cs),
(470,69,o),
(446,94,o),
(415,94,cs),
(386,94,o),
(360,69,o),
(360,39,cs),
(360,8,o),
(386,-16,o),
(415,-16,cs)
);
}
);
width = 570;
}
);
unicode = 8229;
},
{
glyphname = periodcentered.loclCAT;
layers = (
{
anchors = (
{
name = _center;
pos = (-11,357);
}
);
layerId = m01;
shapes = (
{
closed = 1;
nodes = (
(208,288,o),
(238,318,o),
(238,357,cs),
(238,395,o),
(208,426,o),
(169,426,cs),
(132,426,o),
(100,395,o),
(100,357,cs),
(100,318,o),
(132,288,o),
(169,288,cs)
);
}
);
width = 338;
}
);
},
{
glyphname = hyphen;
layers = (
{
layerId = m01;
shapes = (
{
closed = 1;
nodes = (
(75,350,l),
(75,264,l),
(485,264,l),
(485,350,l)
);
}
);
width = 560;
}
);
unicode = 45;
},
{
glyphname = endash;
layers = (
{
layerId = m01;
shapes = (
{
closed = 1;
nodes = (
(65,350,l),
(65,264,l),
(535,264,l),
(535,350,l)
);
}
);
width = 600;
}
);
unicode = 8211;
},
{
glyphname = emdash;
layers = (
{
layerId = m01;
shapes = (
{
closed = 1;
nodes = (
(100,350,l),
(100,264,l),
(670,264,l),
(670,350,l)
);
}
);
width = 770;
}
);
unicode = 8212;
},
{
glyphname = underscore;
layers = (
{
layerId = m01;
shapes = (
{
closed = 1;
nodes = (
(65,0,l),
(65,-86,l),
(551,-86,l),
(551,0,l)
);
}
);
width = 616;
}
);
unicode = 95;
},
{
glyphname = parenleft;
layers = (
{
layerId = m01;
shapes = (
{
closed = 1;
nodes = (
(435,-51,l),
(290,24,o),
(204,159,o),
(204,311,cs),
(204,463,o),
(289,598,o),
(435,673,c),
(392,760,l),
(214,668,o),
(100,507,o),
(100,311,cs),
(100,115,o),
(214,-46,o),
(392,-138,c)
);
}
);
width = 535;
}
);
unicode = 40;
},
{
glyphname = parenright;
layers = (
{
layerId = m01;
shapes = (
{
closed = 1;
nodes = (
(321,-46,o),
(435,115,o),
(435,311,cs),
(435,507,o),
(321,668,o),
(143,760,c),
(100,673,l),
(246,598,o),
(331,463,o),
(331,311,cs),
(331,159,o),
(245,24,o),
(100,-51,c),
(143,-138,l)
);
}
);
width = 535;
}
);
unicode = 41;
},
{
glyphname = braceleft;
layers = (
{
layerId = m01;
name = Regular;
shapes = (
{
closed = 1;
nodes = (
(100,271,l),
(160,271,ls),
(217,271,o),
(271,213,o),
(271,166,cs),
(271,108,o),
(226,75,o),
(226,4,cs),
(226,-55,o),
(257,-101,o),
(327,-116,cs),
(365,-124,o),
(436,-133,o),
(474,-135,c),
(474,-37,l),
(425,-34,o),
(324,-30,o),
(321,19,cs),
(318,65,o),
(366,103,o),
(366,169,cs),
(366,231,o),
(312,287,o),
(267,315,c),
(312,343,o),
(366,399,o),
(366,461,cs),
(366,527,o),
(318,565,o),
(321,611,cs),
(324,660,o),
(425,664,o),
(474,667,c),
(474,765,l),
(436,763,o),
(365,754,o),
(327,746,cs),
(257,731,o),
(226,685,o),
(226,626,cs),
(226,555,o),
(271,522,o),
(271,464,cs),
(271,417,o),
(217,359,o),
(160,359,cs),
(100,359,l)
);
}
);
width = 574;
}
);
unicode = 123;
},
{
glyphname = braceright;
layers = (
{
layerId = m01;
name = Regular;
shapes = (
{
closed = 1;
nodes = (
(414,359,ls),
(357,359,o),
(303,417,o),
(303,464,cs),
(303,522,o),
(348,555,o),
(348,626,cs),
(348,685,o),
(317,731,o),
(247,746,cs),
(209,754,o),
(138,763,o),
(100,765,c),
(100,667,l),
(149,664,o),
(250,660,o),
(253,611,cs),
(256,565,o),
(208,527,o),
(208,461,cs),
(208,399,o),
(262,343,o),
(307,315,c),
(262,287,o),
(208,231,o),
(208,169,cs),
(208,103,o),
(256,65,o),
(253,19,cs),
(250,-30,o),
(149,-34,o),
(100,-37,c),
(100,-135,l),
(138,-133,o),
(209,-124,o),
(247,-116,cs),
(317,-101,o),
(348,-55,o),
(348,4,cs),
(348,75,o),
(303,108,o),
(303,166,cs),
(303,213,o),
(357,271,o),
(414,271,cs),
(474,271,l),
(474,359,l)
);
}
);
width = 574;
}
);
unicode = 125;
},
{
glyphname = bracketleft;
layers = (
{
layerId = m01;
shapes = (
{
closed = 1;
nodes = (
(100,-120,l),
(195,-120,l),
(195,750,l),
(100,750,l)
);
},
{
closed = 1;
nodes = (
(124,750,l),
(124,665,l),
(379,665,l),
(379,750,l)
);
},
{
closed = 1;
nodes = (
(124,-35,l),
(124,-120,l),
(379,-120,l),
(379,-35,l)
);
}
);
width = 479;
}
);
unicode = 91;
},
{
glyphname = bracketright;
layers = (
{
layerId = m01;
shapes = (
{
closed = 1;
nodes = (
(284,750,l),
(284,-120,l),
(379,-120,l),
(379,750,l)
);
},
{
closed = 1;
nodes = (
(100,665,l),
(355,665,l),
(355,750,l),
(100,750,l)
);
},
{
closed = 1;
nodes = (
(100,-120,l),
(355,-120,l),
(355,-35,l),
(100,-35,l)
);
}
);
width = 479;
}
);
unicode = 93;
},
{
glyphname = quotesinglbase;
layers = (
{
layerId = m01;
shapes = (
{
closed = 1;
nodes = (
(100,-132,l),
(156,-132,l),
(237,36,l),
(142,36,l)
);
},
{
closed = 1;
nodes = (
(215,0,o),
(245,31,o),
(245,70,cs),
(245,106,o),
(215,138,o),
(179,138,cs),
(139,138,o),
(108,106,o),
(108,70,cs),
(108,31,o),
(139,0,o),
(179,0,cs)
);
}
);
width = 345;
}
);
unicode = 8218;
},
{
glyphname = quotedblbase;
layers = (
{
layerId = m01;
shapes = (
{
closed = 1;
nodes = (
(100,-132,l),
(156,-132,l),
(237,36,l),
(142,36,l)
);
},
{
closed = 1;
nodes = (
(215,0,o),
(245,31,o),
(245,70,cs),
(245,106,o),
(215,138,o),
(179,138,cs),
(139,138,o),
(108,106,o),
(108,70,cs),
(108,31,o),
(139,0,o),
(179,0,cs)
);
},
{
closed = 1;
nodes = (
(289,-132,l),
(345,-132,l),
(426,36,l),
(331,36,l)
);
},
{
closed = 1;
nodes = (
(404,0,o),
(434,31,o),
(434,70,cs),
(434,106,o),
(404,138,o),
(368,138,cs),
(328,138,o),
(297,106,o),
(297,70,cs),
(297,31,o),
(328,0,o),
(368,0,cs)
);
}
);
width = 534;
}
);
unicode = 8222;
},
{
glyphname = quotedblleft;
layers = (
{
layerId = m01;
shapes = (
{
closed = 1;
nodes = (
(434,710,l),
(378,710,l),
(297,542,l),
(392,542,l)
);
},
{
closed = 1;
nodes = (
(319,578,o),
(289,547,o),
(289,508,cs),
(289,472,o),
(319,440,o),
(355,440,cs),
(395,440,o),
(426,472,o),
(426,508,cs),
(426,547,o),
(395,578,o),
(355,578,cs)
);
},
{
closed = 1;
nodes = (
(245,710,l),
(189,710,l),
(108,542,l),
(203,542,l)
);
},
{
closed = 1;
nodes = (
(130,578,o),
(100,547,o),
(100,508,cs),
(100,472,o),
(130,440,o),
(166,440,cs),
(206,440,o),
(237,472,o),
(237,508,cs),
(237,547,o),
(206,578,o),
(166,578,cs)
);
}
);
width = 534;
}
);
unicode = 8220;
},
{
glyphname = quotedblright;
layers = (
{
layerId = m01;
shapes = (
{
closed = 1;
nodes = (
(100,456,l),
(156,456,l),
(237,624,l),
(142,624,l)
);
},
{
closed = 1;
nodes = (
(215,588,o),
(245,619,o),
(245,658,cs),
(245,694,o),
(215,726,o),
(179,726,cs),
(139,726,o),
(108,694,o),
(108,658,cs),
(108,619,o),
(139,588,o),
(179,588,cs)
);
},
{
closed = 1;
nodes = (
(289,456,l),
(345,456,l),
(426,624,l),
(331,624,l)
);
},
{
closed = 1;
nodes = (
(404,588,o),
(434,619,o),
(434,658,cs),
(434,694,o),
(404,726,o),
(368,726,cs),
(328,726,o),
(297,694,o),
(297,658,cs),
(297,619,o),
(328,588,o),
(368,588,cs)
);
}
);
width = 534;
}
);
unicode = 8221;
},
{
glyphname = quoteleft;
layers = (
{
layerId = m01;
shapes = (
{
closed = 1;
nodes = (
(245,710,l),
(189,710,l),
(108,542,l),
(203,542,l)
);
},
{
closed = 1;
nodes = (
(130,578,o),
(100,547,o),
(100,508,cs),
(100,472,o),
(130,440,o),
(166,440,cs),
(206,440,o),
(237,472,o),
(237,508,cs),
(237,547,o),
(206,578,o),
(166,578,cs)
);
}
);
width = 345;
}
);
unicode = 8216;
},
{
glyphname = quoteright;
layers = (
{
layerId = m01;
shapes = (
{
closed = 1;
nodes = (
(100,456,l),
(156,456,l),
(237,624,l),
(142,624,l)
);
},
{
closed = 1;
nodes = (
(215,588,o),
(245,619,o),
(245,658,cs),
(245,694,o),
(215,726,o),
(179,726,cs),
(139,726,o),
(108,694,o),
(108,658,cs),
(108,619,o),
(139,588,o),
(179,588,cs)
);
}
);
width = 345;
}
);
unicode = 8217;
},
{
glyphname = guillemetleft;
layers = (
{
layerId = m01;
shapes = (
{
closed = 1;
nodes = (
(154,221,l),
(397,464,l),
(343,518,l),
(100,275,l)
);
},
{
closed = 1;
nodes = (
(343,32,l),
(397,86,l),
(154,329,l),
(100,275,l)
);
},
{
closed = 1;
nodes = (
(354,221,l),
(597,464,l),
(543,518,l),
(300,275,l)
);
},
{
closed = 1;
nodes = (
(543,32,l),
(597,86,l),
(354,329,l),
(300,275,l)
);
}
);
width = 697;
}
);
unicode = 171;
},
{
glyphname = guillemetright;
layers = (
{
layerId = m01;
shapes = (
{
closed = 1;
nodes = (
(354,518,l),
(300,464,l),
(543,221,l),
(597,275,l)
);
},
{
closed = 1;
nodes = (
(543,329,l),
(300,86,l),
(354,32,l),
(597,275,l)
);
},
{
closed = 1;
nodes = (
(154,518,l),
(100,464,l),
(343,221,l),
(397,275,l)
);
},
{
closed = 1;
nodes = (
(343,329,l),
(100,86,l),
(154,32,l),
(397,275,l)
);
}
);
width = 697;
}
);
unicode = 187;
},
{
glyphname = guilsinglleft;
layers = (
{
layerId = m01;
shapes = (
{
closed = 1;
nodes = (
(157,218,l),
(400,461,l),
(343,518,l),
(100,275,l)
);
},
{
closed = 1;
nodes = (
(343,32,l),
(400,89,l),
(157,332,l),
(100,275,l)
);
}
);
width = 500;
}
);
unicode = 8249;
},
{
glyphname = guilsinglright;
layers = (
{
layerId = m01;
shapes = (
{
closed = 1;
nodes = (
(157,518,l),
(100,461,l),
(343,218,l),
(400,275,l)
);
},
{
closed = 1;
nodes = (
(343,332,l),
(100,89,l),
(157,32,l),
(400,275,l)
);
}
);
width = 500;
}
);
unicode = 8250;
},
{
glyphname = quotedbl;
layers = (
{
layerId = m01;
shapes = (
{
closed = 1;
nodes = (
(137,438,l),
(189,438,l),
(226,710,l),
(100,710,l)
);
},
{
closed = 1;
nodes = (
(345,438,l),
(397,438,l),
(434,710,l),
(308,710,l)
);
}
);
width = 534;
}
);
unicode = 34;
},
{
glyphname = quotesingle;
layers = (
{
layerId = m01;
shapes = (
{
closed = 1;
nodes = (
(137,438,l),
(189,438,l),
(226,710,l),
(100,710,l)
);
}
);
width = 326;
}
);
unicode = 39;
},
{
glyphname = baht;
layers = (
{
layerId = m01;
shapes = (
{
closed = 1;
nodes = (
(100,29,l),
(183,29,l),
(183,681,l),
(100,681,l)
);
},
{
closed = 1;
nodes = (
(182,337,l),
(247,337,o),
(266,337,o),
(317,337,cs),
(432,337,o),
(531,406,o),
(531,517,cs),
(531,622,o),
(436,681,o),
(317,681,cs),
(275,681,o),
(254,681,o),
(182,681,c),
(182,603,l),
(254,603,o),
(276,603,o),
(317,603,cs),
(378,603,o),
(446,574,o),
(446,506,cs),
(446,428,o),
(372,400,o),
(317,400,cs),
(266,400,o),
(248,400,o),
(182,400,c)
);
},
{
closed = 1;
nodes = (
(182,29,l),
(247,29,o),
(271,29,o),
(322,29,cs),
(438,29,o),
(560,82,o),
(560,214,cs),
(560,347,o),
(439,389,o),
(317,389,c),
(278,389,o),
(254,389,o),
(182,389,c),
(182,328,l),
(254,328,o),
(276,328,o),
(317,328,cs),
(365,328,o),
(475,322,o),
(475,217,cs),
(475,119,o),
(365,107,o),
(322,107,cs),
(271,107,o),
(248,107,o),
(182,107,c)
);
},
{
closed = 1;
nodes = (
(266,764,l),
(266,-61,l),
(334,-61,l),
(334,764,l)
);
}
);
width = 625;
}
);
unicode = 3647;
},
{
glyphname = at;
layers = (
{
layerId = m01;
name = Regular;
shapes = (
{
closed = 1;
nodes = (
(356,-14,o),
(415,123,o),
(415,222,cs),
(415,357,o),
(391,494,o),
(277,494,cs),
(158,494,o),
(98,361,o),
(88,236,cs),
(79,119,o),
(107,-14,o),
(232,-14,cs)
);
},
{
closed = 1;
nodes = (
(170,71,o),
(160,159,o),
(165,232,cs),
(170,311,o),
(208,408,o),
(281,408,cs),
(370,408,o),
(384,297,o),
(384,220,cs),
(384,141,o),
(314,71,o),
(244,71,cs)
);
},
{
closed = 1;
nodes = (
(436,491,l),
(368,492,l),
(357,461,l),
(344,48,l),
(382,84,l),
(420,143,l)
);
},
{
closed = 1;
nodes = (
(360,71,l),
(371,31,o),
(407,-16,o),
(472,-16,cs),
(608,-16,o),
(633,182,o),
(629,323,cs),
(623,542,o),
(556,726,o),
(340,726,cs),
(256,726,o),
(162,693,o),
(85,627,c),
(139,557,l),
(198,601,o),
(271,637,o),
(343,636,cs),
(489,634,o),
(536,477,o),
(540,322,cs),
(545,136,o),
(513,68,o),
(468,68,cs),
(444,68,o),
(420,86,o),
(420,143,c)
);
}
);
width = 709;
}
);
unicode = 64;
},
{
glyphname = ampersand;
layers = (
{
layerId = m01;
name = Regular;
shapes = (
{
closed = 1;
nodes = (
(137,512,o),
(172,458,o),
(201,421,cs),
(542,-16,l),
(609,40,l),
(291,442,ls),
(261,479,o),
(235,517,o),
(235,557,cs),
(235,609,o),
(273,637,o),
(323,637,cs),
(387,637,o),
(410,587,o),
(410,550,c),
(508,550,l),
(508,640,o),
(445,725,o),
(326,725,cs),
(197,725,o),
(137,654,o),
(137,565,cs)
);
},
{
closed = 1;
nodes = (
(446,191,ls),
(424,123,o),
(370,73,o),
(296,72,cs),
(213,71,o),
(162,119,o),
(162,198,cs),
(162,277,o),
(233,343,o),
(317,343,c),
(306,412,l),
(175,410,o),
(65,312,o),
(65,198,cs),
(65,63,o),
(154,-16,o),
(297,-16,cs),
(423,-16,o),
(490,54,o),
(515,128,cs),
(606,394,l),
(606,404,l),
(516,404,l)
);
}
);
width = 684;
}
);
unicode = 38;
},
{
glyphname = paragraph;
layers = (
{
layerId = m01;
shapes = (
{
closed = 1;
nodes = (
(271,750,l),
(271,-60,l),
(357,-60,l),
(357,750,l)
);
},
{
closed = 1;
nodes = (
(281,750,l),
(166,750,o),
(75,657,o),
(75,534,cs),
(75,411,o),
(166,318,o),
(281,318,c)
);
},
{
closed = 1;
nodes = (
(431,750,l),
(431,-60,l),
(515,-60,l),
(515,750,l)
);
},
{
closed = 1;
nodes = (
(317,693,l),
(467,693,l),
(467,750,l),
(317,750,l)
);
}
);
width = 615;
}
);
unicode = 182;
},
{
glyphname = section;
layers = (
{
layerId = m01;
shapes = (
{
closed = 1;
nodes = (
(411,195,l),
(448,231,o),
(494,274,o),
(494,335,cs),
(494,492,o),
(166,515,o),
(168,610,cs),
(169,650,o),
(230,680,o),
(289,680,cs),
(346,680,o),
(393,661,o),
(439,625,c),
(494,687,l),
(437,738,o),
(367,766,o),
(289,766,cs),
(194,766,o),
(70,708,o),
(70,607,cs),
(70,443,o),
(401,443,o),
(401,333,cs),
(401,309,o),
(385,286,o),
(343,247,c)
);
},
{
closed = 1;
nodes = (
(200,529,l),
(163,517,o),
(71,466,o),
(71,396,cs),
(71,236,o),
(398,217,o),
(396,131,cs),
(395,91,o),
(340,67,o),
(281,67,cs),
(230,67,o),
(168,88,o),
(125,134,c),
(70,73,l),
(127,15,o),
(209,-16,o),
(281,-16,cs),
(376,-16,o),
(494,33,o),
(494,134,cs),
(494,285,o),
(167,295,o),
(167,398,cs),
(167,435,o),
(228,467,o),
(274,478,c)
);
}
);
width = 568;
}
);
unicode = 167;
},
{
glyphname = copyright;
layers = (
{
layerId = m01;
name = Regular;
shapes = (
{
closed = 1;
nodes = (
(515,42,o),
(610,178,o),
(610,360,cs),
(610,542,o),
(515,678,o),
(335,678,cs),
(155,678,o),
(60,542,o),
(60,360,cs),
(60,178,o),
(155,42,o),
(335,42,cs)
);
},
{
closed = 1;
nodes = (
(182,88,o),
(109,201,o),
(109,360,cs),
(109,519,o),
(182,636,o),
(335,636,cs),
(488,636,o),
(561,519,o),
(561,360,cs),
(561,201,o),
(488,84,o),
(335,86,cs)
);
},
{
closed = 1;
nodes = (
(384,157,o),
(430,172,o),
(469,212,c),
(424,266,l),
(394,239,o),
(366,229,o),
(337,229,cs),
(290,229,o),
(244,268,o),
(244,359,cs),
(244,441,o),
(283,498,o),
(337,498,cs),
(366,498,o),
(389,485,o),
(408,455,c),
(463,488,l),
(443,528,o),
(405,571,o),
(335,571,cs),
(245,571,o),
(172,497,o),
(172,361,cs),
(172,225,o),
(246,157,o),
(339,157,cs)
);
}
);
width = 670;
}
);
unicode = 169;
},
{
glyphname = registered;
layers = (
{
layerId = m01;
shapes = (
{
closed = 1;
nodes = (
(515,42,o),
(610,178,o),
(610,360,cs),
(610,542,o),
(515,678,o),
(335,678,cs),
(155,678,o),
(60,542,o),
(60,360,cs),
(60,178,o),
(155,42,o),
(335,42,cs)
);
},
{
closed = 1;
nodes = (
(182,88,o),
(109,201,o),
(109,360,cs),
(109,519,o),
(182,636,o),
(335,636,cs),
(488,636,o),
(561,519,o),
(561,360,cs),
(561,201,o),
(488,84,o),
(335,86,cs)
);
},
{
closed = 1;
nodes = (
(205,180,l),
(269,180,l),
(269,550,l),
(205,550,l)
);
},
{
closed = 1;
nodes = (
(265,318,l),
(289,318,o),
(314,318,o),
(341,318,cs),
(421,318,o),
(471,360,o),
(471,434,cs),
(471,508,o),
(423,550,o),
(341,550,cs),
(321,550,o),
(293,550,o),
(265,550,c),
(265,491,l),
(293,491,o),
(319,491,o),
(340,491,cs),
(392,491,o),
(408,459,o),
(408,434,cs),
(408,396,o),
(386,377,o),
(340,377,cs),
(313,377,o),
(290,377,o),
(265,377,c)
);
},
{
closed = 1;
nodes = (
(303,342,l),
(410,180,l),
(483,180,l),
(483,185,l),
(377,342,l)
);
}
);
width = 670;
}
);
unicode = 174;
},
{
glyphname = published;
layers = (
{
layerId = m01;
shapes = (
{
closed = 1;
nodes = (
(515,42,o),
(610,178,o),
(610,360,cs),
(610,542,o),
(515,678,o),
(335,678,cs),
(155,678,o),
(60,542,o),
(60,360,cs),
(60,178,o),
(155,42,o),
(335,42,cs)
);
},
{
closed = 1;
nodes = (
(182,88,o),
(109,201,o),
(109,360,cs),
(109,519,o),
(182,636,o),
(335,636,cs),
(488,636,o),
(561,519,o),
(561,360,cs),
(561,201,o),
(488,84,o),
(335,86,cs)
);
},
{
closed = 1;
nodes = (
(216,180,l),
(280,180,l),
(280,550,l),
(216,550,l)
);
},
{
closed = 1;
nodes = (
(274,314,l),
(312,314,o),
(325,314,o),
(355,314,cs),
(434,314,o),
(490,353,o),
(490,432,cs),
(490,511,o),
(437,550,o),
(355,550,cs),
(332,550,o),
(316,550,o),
(274,550,c),
(274,489,l),
(317,489,o),
(326,489,o),
(350,489,cs),
(402,489,o),
(428,473,o),
(428,432,cs),
(428,391,o),
(402,375,o),
(350,375,cs),
(320,375,o),
(313,375,o),
(274,375,c)
);
}
);
width = 670;
}
);
unicode = 8471;
},
{
glyphname = trademark;
layers = (
{
layerId = m01;
shapes = (
{
closed = 1;
nodes = (
(219,417,l),
(219,710,l),
(159,710,l),
(159,417,l)
);
},
{
closed = 1;
nodes = (
(308,710,l),
(70,710,l),
(70,654,l),
(308,654,l)
);
},
{
closed = 1;
nodes = (
(341,414,l),
(396,414,l),
(396,710,l),
(341,710,l)
);
},
{
closed = 1;
nodes = (
(563,414,l),
(618,414,l),
(618,710,l),
(563,710,l)
);
},
{
closed = 1;
nodes = (
(479,594,o),
(440,653,o),
(402,710,c),
(346,710,l),
(388,653,o),
(422,595,o),
(453,527,c),
(505,527,l)
);
},
{
closed = 1;
nodes = (
(506,527,l),
(537,595,o),
(571,653,o),
(613,710,c),
(557,710,l),
(519,653,o),
(480,594,o),
(454,527,c)
);
}
);
width = 698;
}
);
unicode = 8482;
},
{
glyphname = degree;
layers = (
{
layerId = m01;
shapes = (
{
closed = 1;
nodes = (
(272,434,o),
(332,490,o),
(332,580,cs),
(332,670,o),
(277,726,o),
(186,726,cs),
(100,726,o),
(40,670,o),
(40,580,cs),
(40,490,o),
(100,434,o),
(186,434,cs)
);
},
{
closed = 1;
nodes = (
(138,496,o),
(108,531,o),
(108,579,cs),
(108,629,o),
(138,664,o),
(185,664,cs),
(235,664,o),
(264,629,o),
(264,579,cs),
(264,531,o),
(235,496,o),
(185,496,cs)
);
}
);
width = 432;
}
);
unicode = 176;
},
{
glyphname = bar;
layers = (
{
layerId = m01;
shapes = (
{
closed = 1;
nodes = (
(100,766,l),
(100,-160,l),
(198,-160,l),
(198,766,l)
);
}
);
width = 298;
}
);
unicode = 124;
},
{
glyphname = dagger;
layers = (
{
layerId = m01;
shapes = (
{
closed = 1;
nodes = (
(226,-20,l),
(304,-20,l),
(304,570,l),
(226,570,l)
);
},
{
closed = 1;
nodes = (
(440,339,l),
(440,412,l),
(90,412,l),
(90,339,l)
);
}
);
width = 530;
}
);
unicode = 8224;
},
{
glyphname = daggerdbl;
layers = (
{
layerId = m01;
shapes = (
{
closed = 1;
nodes = (
(226,-20,l),
(304,-20,l),
(304,570,l),
(226,570,l)
);
},
{
closed = 1;
nodes = (
(440,348,l),
(440,418,l),
(90,418,l),
(90,348,l)
);
},
{
closed = 1;
nodes = (
(440,132,l),
(440,202,l),
(90,202,l),
(90,132,l)
);
}
);
width = 530;
}
);
unicode = 8225;
},
{
glyphname = servicemark;
layers = (
{
layerId = m01;
shapes = (
{
closed = 1;
nodes = (
(99,429,o),
(144,407,o),
(191,407,cs),
(263,407,o),
(305,442,o),
(305,492,cs),
(305,576,o),
(134,589,o),
(134,635,cs),
(134,659,o),
(158,671,o),
(191,671,cs),
(219,671,o),
(247,657,o),
(264,641,c),
(296,679,l),
(271,704,o),
(231,723,o),
(191,723,cs),
(135,723,o),
(76,698,o),
(76,635,cs),
(76,543,o),
(248,538,o),
(248,494,cs),
(248,469,o),
(226,459,o),
(195,459,cs),
(165,459,o),
(127,476,o),
(104,497,c),
(70,454,l)
);
},
{
closed = 1;
nodes = (
(337,414,l),
(392,414,l),
(392,710,l),
(337,710,l)
);
},
{
closed = 1;
nodes = (
(559,414,l),
(614,414,l),
(614,710,l),
(559,710,l)
);
},
{
closed = 1;
nodes = (
(475,594,o),
(436,653,o),
(398,710,c),
(342,710,l),
(384,653,o),
(418,595,o),
(449,527,c),
(501,527,l)
);
},
{
closed = 1;
nodes = (
(502,527,l),
(533,595,o),
(567,653,o),
(609,710,c),
(553,710,l),
(515,653,o),
(476,594,o),
(450,527,c)
);
}
);
width = 694;
}
);
unicode = 8480;
},
{
glyphname = cent;
layers = (
{
layerId = m01;
name = Regular;
shapes = (
{
closed = 1;
nodes = (
(422,492,o),
(369,520,o),
(299,520,cs),
(162,520,o),
(60,426,o),
(60,271,cs),
(60,117,o),
(162,22,o),
(299,22,cs),
(369,22,o),
(422,50,o),
(447,73,c),
(447,156,l),
(441,156,l),
(403,123,o),
(359,103,o),
(299,103,cs),
(216,103,o),
(139,158,o),
(139,271,cs),
(139,384,o),
(216,439,o),
(299,439,cs),
(359,439,o),
(403,419,o),
(441,386,c),
(447,386,l),
(447,469,l)
);
},
{
closed = 1;
nodes = (
(252,609,l),
(252,-61,l),
(322,-61,l),
(322,609,l)
);
}
);
width = 547;
}
);
unicode = 162;
},
{
glyphname = dollar;
layers = (
{
layerId = m01;
shapes = (
{
closed = 1;
nodes = (
(276,764,l),
(276,-61,l),
(344,-61,l),
(344,764,l)
);
},
{
closed = 1;
nodes = (
(297,396,l),
(222,425,o),
(158,446,o),
(158,509,cs),
(158,570,o),
(233,600,o),
(319,598,cs),
(397,596,o),
(458,553,o),
(459,498,c),
(545,498,l),
(545,624,o),
(420,683,o),
(319,684,cs),
(171,685,o),
(63,623,o),
(63,514,cs),
(63,399,o),
(172,361,o),
(297,316,c)
);
},
{
closed = 1;
nodes = (
(318,312,l),
(393,290,o),
(460,260,o),
(460,196,cs),
(460,138,o),
(390,108,o),
(300,108,cs),
(224,108,o),
(145,149,o),
(145,217,c),
(47,217,l),
(47,86,o),
(203,22,o),
(298,22,cs),
(450,22,o),
(555,86,o),
(555,191,cs),
(555,312,o),
(435,352,o),
(318,394,c)
);
}
);
width = 620;
}
);
unicode = 36;
},
{
glyphname = dong;
layers = (
{
layerId = m01;
name = Regular;
shapes = (
{
closed = 1;
nodes = (
(546,-18,l),
(100,-18,l),
(100,-92,l),
(546,-92,l)
);
},
{
closed = 1;
nodes = (
(484,738,l),
(398,738,l),
(398,43,l),
(484,82,l)
);
},
{
closed = 1;
nodes = (
(433,138,l),
(397,113,o),
(361,105,o),
(313,105,cs),
(235,105,o),
(157,179,o),
(157,288,cs),
(157,397,o),
(216,464,o),
(308,464,cs),
(354,464,o),
(409,431,o),
(416,393,c),
(449,393,l),
(442,480,o),
(385,545,o),
(293,545,cs),
(180,545,o),
(70,453,o),
(70,288,cs),
(70,127,o),
(186,23,o),
(313,23,cs),
(381,23,o),
(437,51,o),
(479,79,c)
);
},
{
closed = 1;
nodes = (
(405,104,l),
(423,54,o),
(463,28,o),
(546,31,c),
(546,107,l),
(506,109,o),
(484,127,o),
(484,161,c)
);
},
{
closed = 1;
nodes = (
(263,598,l),
(567,598,l),
(567,670,l),
(263,670,l)
);
}
);
width = 657;
}
);
unicode = 8363;
},
{
glyphname = euro;
layers = (
{
layerId = m01;
name = Regular;
shapes = (
{
closed = 1;
nodes = (
(572,529,l),
(615,606,l),
(573,664,o),
(504,710,o),
(405,710,cs),
(247,710,o),
(131,567,o),
(132,354,cs),
(133,137,o),
(255,0,o),
(420,0,cs),
(515,0,o),
(578,37,o),
(614,72,c),
(614,167,l),
(606,167,l),
(552,114,o),
(499,87,o),
(425,87,cs),
(301,87,o),
(225,191,o),
(225,353,cs),
(225,519,o),
(296,624,o),
(414,624,cs),
(483,624,o),
(543,577,o),
(566,532,c)
);
},
{
closed = 1;
nodes = (
(528,438,l),
(528,444,l),
(51,444,l),
(51,371,l),
(491,371,l)
);
},
{
closed = 1;
nodes = (
(453,301,l),
(455,307,l),
(50,307,l),
(50,235,l),
(418,235,l)
);
}
);
width = 695;
}
);
unicode = 8364;
},
{
glyphname = liraTurkish;
layers = (
{
layerId = m01;
shapes = (
{
closed = 1;
nodes = (
(177,10,l),
(265,10,l),
(265,700,l),
(177,700,l)
);
},
{
closed = 1;
nodes = (
(50,434,l),
(416,519,l),
(416,595,l),
(50,510,l)
);
},
{
closed = 1;
nodes = (
(50,296,l),
(416,381,l),
(416,457,l),
(50,372,l)
);
},
{
closed = 1;
nodes = (
(501,353,l),
(496,223,o),
(444,92,o),
(284,92,c),
(284,10,l),
(472,10,o),
(583,130,o),
(588,353,c)
);
},
{
closed = 1;
nodes = (
(225,10,l),
(284,10,l),
(284,92,l),
(225,92,l)
);
}
);
width = 643;
}
);
unicode = 8378;
},
{
glyphname = naira;
layers = (
{
layerId = m01;
name = Regular;
shapes = (
{
closed = 1;
nodes = (
(453,10,l),
(537,10,l),
(224,700,l),
(140,700,l)
);
},
{
closed = 1;
nodes = (
(114,10,l),
(197,10,l),
(197,700,l),
(114,700,l)
);
},
{
closed = 1;
nodes = (
(563,700,l),
(480,700,l),
(480,10,l),
(563,10,l)
);
},
{
closed = 1;
nodes = (
(626,442,l),
(50,442,l),
(50,387,l),
(626,387,l)
);
},
{
closed = 1;
nodes = (
(626,323,l),
(50,323,l),
(50,268,l),
(626,268,l)
);
}
);
width = 676;
}
);
unicode = 8358;
},
{
glyphname = peso;
layers = (
{
layerId = m01;
shapes = (
{
closed = 1;
nodes = (
(119,10,l),
(207,10,l),
(207,700,l),
(119,700,l)
);
},
{
closed = 1;
nodes = (
(195,236,l),
(262,236,o),
(277,236,o),
(330,236,cs),
(465,236,o),
(558,333,o),
(558,468,cs),
(558,594,o),
(469,696,o),
(330,700,cs),
(290,701,o),
(269,700,o),
(195,700,c),
(195,618,l),
(270,618,o),
(290,620,o),
(332,618,cs),
(423,614,o),
(476,541,o),
(476,468,cs),
(476,390,o),
(423,318,o),
(332,318,cs),
(279,318,o),
(263,318,o),
(195,318,c)
);
},
{
closed = 1;
nodes = (
(626,556,l),
(50,556,l),
(50,501,l),
(626,501,l)
);
},
{
closed = 1;
nodes = (
(626,435,l),
(50,435,l),
(50,380,l),
(626,380,l)
);
}
);
width = 676;
}
);
unicode = 8369;
},
{
glyphname = ruble;
layers = (
{
layerId = m01;
shapes = (
{
closed = 1;
nodes = (
(126,10,l),
(214,10,l),
(214,700,l),
(126,700,l)
);
},
{
closed = 1;
nodes = (
(50,292,l),
(117,292,o),
(283,292,o),
(336,292,cs),
(471,292,o),
(564,363,o),
(564,496,cs),
(564,624,o),
(475,700,o),
(336,700,cs),
(296,700,o),
(270,700,o),
(196,700,c),
(196,618,l),
(271,618,o),
(296,618,o),
(338,618,cs),
(427,618,o),
(480,571,o),
(480,496,cs),
(480,420,o),
(427,374,o),
(338,374,cs),
(285,374,o),
(118,374,o),
(50,374,c)
);
},
{
closed = 1;
nodes = (
(437,214,l),
(50,214,l),
(50,138,l),
(437,138,l)
);
}
);
width = 624;
}
);
unicode = 8381;
},
{
glyphname = rupeeIndian;
layers = (
{
layerId = m01;
shapes = (
{
closed = 1;
nodes = (
(80,294,l),
(341,10,l),
(445,10,l),
(445,20,l),
(188,294,l)
);
},
{
closed = 1;
nodes = (
(536,700,l),
(80,700,l),
(80,630,l),
(536,630,l)
);
},
{
closed = 1;
nodes = (
(536,532,l),
(80,532,l),
(80,462,l),
(536,462,l)
);
},
{
closed = 1;
nodes = (
(80,294,l),
(147,294,o),
(162,294,o),
(215,294,cs),
(356,294,o),
(448,365,o),
(448,491,cs),
(448,607,o),
(360,666,o),
(215,666,cs),
(175,666,o),
(154,666,o),
(80,666,c),
(80,618,l),
(155,618,o),
(175,618,o),
(217,618,cs),
(316,618,o),
(364,564,o),
(364,491,cs),
(364,417,o),
(316,364,o),
(217,364,cs),
(164,364,o),
(148,364,o),
(80,364,c)
);
}
);
width = 616;
}
);
unicode = 8377;
},
{
glyphname = sterling;
layers = (
{
layerId = m01;
name = Regular;
shapes = (
{
closed = 1;
nodes = (
(152,7,l),
(182,65,l),
(223,103,o),
(280,168,o),
(281,247,cs),
(282,336,o),
(206,393,o),
(206,494,cs),
(206,567,o),
(270,628,o),
(358,628,cs),
(419,628,o),
(474,597,o),
(509,560,c),
(562,619,l),
(518,669,o),
(446,710,o),
(350,710,cs),
(210,710,o),
(116,608,o),
(116,504,cs),
(116,377,o),
(191,337,o),
(191,253,cs),
(191,188,o),
(157,144,o),
(96,82,c)
);
},
{
closed = 1;
nodes = (
(529,93,o),
(510,89,o),
(474,89,cs),
(415,89,o),
(385,129,o),
(312,133,cs),
(255,136,o),
(197,103,o),
(153,85,c),
(152,8,l),
(209,35,o),
(255,52,o),
(310,47,cs),
(364,42,o),
(410,5,o),
(475,5,cs),
(523,5,o),
(564,18,o),
(605,43,c),
(566,111,l)
);
},
{
closed = 1;
nodes = (
(455,389,l),
(65,389,l),
(65,313,l),
(455,313,l)
);
}
);
width = 655;
}
);
unicode = 163;
},
{
glyphname = won;
layers = (
{
layerId = m01;
shapes = (
{
closed = 1;
nodes = (
(77,388,o),
(108,169,o),
(151,10,c),
(227,10,l),
(190,169,o),
(161,388,o),
(168,700,c),
(81,700,l)
);
},
{
closed = 1;
nodes = (
(302,473,l),
(178,10,l),
(258,10,l),
(374,473,l)
);
},
{
closed = 1;
nodes = (
(418,10,l),
(498,10,l),
(374,473,l),
(302,473,l)
);
},
{
closed = 1;
nodes = (
(508,700,l),
(512,388,o),
(486,169,o),
(449,10,c),
(525,10,l),
(568,169,o),
(596,388,o),
(595,700,c)
);
},
{
closed = 1;
nodes = (
(626,442,l),
(50,442,l),
(50,387,l),
(626,387,l)
);
},
{
closed = 1;
nodes = (
(286,323,l),
(50,323,l),
(50,268,l),
(286,268,l)
);
},
{
closed = 1;
nodes = (
(626,323,l),
(390,323,l),
(390,268,l),
(626,268,l)
);
}
);
width = 676;
}
);
unicode = 8361;
},
{
glyphname = yen;
layers = (
{
layerId = m01;
shapes = (
{
closed = 1;
nodes = (
(463,700,l),
(309,393,l),
(401,393,l),
(565,691,l),
(565,700,l)
);
},
{
closed = 1;
nodes = (
(275,10,l),
(365,10,l),
(368,384,l),
(272,384,l)
);
},
{
closed = 1;
nodes = (
(525,392,l),
(525,395,l),
(111,395,l),
(111,322,l),
(525,322,l)
);
},
{
closed = 1;
nodes = (
(525,253,l),
(525,256,l),
(111,256,l),
(111,183,l),
(525,183,l)
);
},
{
closed = 1;
nodes = (
(75,691,l),
(239,393,l),
(331,393,l),
(177,700,l),
(75,700,l)
);
}
);
width = 640;
}
);
unicode = 165;
},
{
glyphname = plus;
layers = (
{
layerId = m01;
shapes = (
{
closed = 1;
nodes = (
(65,350,l),
(65,264,l),
(535,264,l),
(535,350,l)
);
},
{
closed = 1;
nodes = (
(345,558,l),
(255,558,l),
(255,56,l),
(345,56,l)
);
}
);
width = 600;
}
);
unicode = 43;
},
{
glyphname = minus;
layers = (
{
layerId = m01;
shapes = (
{
closed = 1;
nodes = (
(60,347,l),
(60,258,l),
(540,258,l),
(540,347,l)
);
}
);
width = 600;
}
);
unicode = 8722;
},
{
glyphname = multiply;
layers = (
{
layerId = m01;
shapes = (
{
closed = 1;
nodes = (
(487,448,l),
(425,510,l),
(70,155,l),
(132,93,l)
);
},
{
closed = 1;
nodes = (
(488,156,l),
(133,511,l),
(70,448,l),
(425,93,l)
);
}
);
width = 558;
}
);
unicode = 215;
},
{
glyphname = divide;
layers = (
{
layerId = m01;
shapes = (
{
closed = 1;
nodes = (
(65,347,l),
(65,258,l),
(545,258,l),
(545,347,l)
);
},
{
closed = 1;
nodes = (
(334,77,o),
(360,102,o),
(360,132,cs),
(360,162,o),
(334,187,o),
(304,187,cs),
(275,187,o),
(250,162,o),
(250,132,cs),
(250,102,o),
(274,77,o),
(304,77,cs)
);
},
{
closed = 1;
nodes = (
(334,418,o),
(360,443,o),
(360,473,cs),
(360,503,o),
(334,528,o),
(304,528,cs),
(275,528,o),
(250,503,o),
(250,473,cs),
(250,443,o),
(274,418,o),
(304,418,cs)
);
}
);
width = 610;
}
);
unicode = 247;
},
{
glyphname = equal;
layers = (
{
layerId = m01;
shapes = (
{
closed = 1;
nodes = (
(70,250,l),
(70,164,l),
(540,164,l),
(540,250,l)
);
},
{
closed = 1;
nodes = (
(70,452,l),
(70,366,l),
(540,366,l),
(540,452,l)
);
}
);
width = 610;
}
);
unicode = 61;
},
{
glyphname = notequal;
layers = (
{
layerId = m01;
shapes = (
{
closed = 1;
nodes = (
(85,250,l),
(85,164,l),
(555,164,l),
(555,250,l)
);
},
{
closed = 1;
nodes = (
(85,452,l),
(85,366,l),
(555,366,l),
(555,452,l)
);
},
{
closed = 1;
nodes = (
(133,40,l),
(133,30,l),
(215,30,l),
(517,590,l),
(517,600,l),
(435,600,l)
);
}
);
width = 640;
}
);
unicode = 8800;
},
{
glyphname = greater;
layers = (
{
layerId = m01;
shapes = (
{
closed = 1;
nodes = (
(100,498,l),
(520,263,l),
(520,356,l),
(110,597,l),
(100,597,l)
);
},
{
closed = 1;
nodes = (
(110,11,l),
(520,257,l),
(520,350,l),
(100,110,l),
(100,11,l)
);
}
);
width = 620;
}
);
unicode = 62;
},
{
glyphname = less;
layers = (
{
layerId = m01;
shapes = (
{
closed = 1;
nodes = (
(510,597,l),
(100,356,l),
(100,263,l),
(520,498,l),
(520,597,l)
);
},
{
closed = 1;
nodes = (
(520,110,l),
(100,350,l),
(100,257,l),
(510,11,l),
(520,11,l)
);
}
);
width = 620;
}
);
unicode = 60;
},
{
glyphname = greaterequal;
layers = (
{
layerId = m01;
shapes = (
{
closed = 1;
nodes = (
(100,512,l),
(520,356,l),
(520,440,l),
(110,607,l),
(100,607,l)
);
},
{
closed = 1;
nodes = (
(110,169,l),
(520,341,l),
(520,425,l),
(100,264,l),
(100,169,l)
);
},
{
closed = 1;
nodes = (
(100,99,l),
(100,13,l),
(520,13,l),
(520,99,l)
);
}
);
width = 620;
}
);
unicode = 8805;
},
{
glyphname = lessequal;
layers = (
{
layerId = m01;
shapes = (
{
closed = 1;
nodes = (
(510,607,l),
(100,440,l),
(100,356,l),
(520,512,l),
(520,607,l)
);
},
{
closed = 1;
nodes = (
(520,264,l),
(100,425,l),
(100,341,l),
(510,169,l),
(520,169,l)
);
},
{
closed = 1;
nodes = (
(100,13,l),
(520,13,l),
(520,99,l),
(100,99,l)
);
}
);
width = 620;
}
);
unicode = 8804;
},
{
glyphname = plusminus;
layers = (
{
layerId = m01;
shapes = (
{
closed = 1;
nodes = (
(85,439,l),
(85,353,l),
(505,353,l),
(505,439,l)
);
},
{
closed = 1;
nodes = (
(340,622,l),
(250,622,l),
(250,170,l),
(340,170,l)
);
},
{
closed = 1;
nodes = (
(85,13,l),
(505,13,l),
(505,99,l),
(85,99,l)
);
}
);
width = 590;
}
);
unicode = 177;
},
{
glyphname = approxequal;
layers = (
{
layerId = m01;
shapes = (
{
closed = 1;
nodes = (
(436,287,o),
(474,276,o),
(615,452,c),
(555,501,l),
(455,383,o),
(451,378,o),
(370,453,cs),
(254,558,o),
(216,569,o),
(75,393,c),
(135,344,l),
(235,462,o),
(239,467,o),
(320,392,cs)
);
},
{
closed = 1;
nodes = (
(436,67,o),
(474,56,o),
(615,232,c),
(555,281,l),
(455,163,o),
(451,158,o),
(370,233,cs),
(254,338,o),
(216,349,o),
(75,173,c),
(135,124,l),
(235,242,o),
(239,247,o),
(320,172,cs)
);
}
);
width = 690;
}
);
unicode = 8776;
},
{
glyphname = asciitilde;
layers = (
{
layerId = m01;
name = Regular;
shapes = (
{
closed = 1;
nodes = (
(423,180,o),
(461,169,o),
(602,345,c),
(542,394,l),
(442,276,o),
(438,271,o),
(357,346,cs),
(241,451,o),
(203,462,o),
(62,286,c),
(122,237,l),
(222,355,o),
(226,360,o),
(307,285,cs)
);
}
);
width = 664;
}
);
unicode = 126;
},
{
glyphname = asciicircum;
layers = (
{
layerId = m01;
shapes = (
{
closed = 1;
nodes = (
(180,420,l),
(344,750,l),
(255,750,l),
(85,430,l),
(85,420,l)
);
},
{
closed = 1;
nodes = (
(519,430,l),
(349,750,l),
(260,750,l),
(424,420,l),
(519,420,l)
);
}
);
width = 604;
}
);
unicode = 94;
},
{
glyphname = percent;
layers = (
{
layerId = m01;
shapes = (
{
closed = 1;
nodes = (
(544,710,l),
(110,10,l),
(111,0,l),
(179,0,l),
(613,700,l),
(612,710,l)
);
},
{
closed = 1;
nodes = (
(326,403,o),
(374,467,o),
(374,564,cs),
(374,661,o),
(326,726,o),
(227,726,cs),
(128,726,o),
(80,661,o),
(80,564,cs),
(80,467,o),
(128,403,o),
(227,403,cs)
);
},
{
closed = 1;
nodes = (
(174,469,o),
(158,515,o),
(158,564,cs),
(158,614,o),
(174,659,o),
(227,659,cs),
(279,659,o),
(295,614,o),
(295,564,cs),
(295,515,o),
(279,469,o),
(227,469,cs)
);
},
{
closed = 1;
nodes = (
(402,307,o),
(354,243,o),
(354,146,cs),
(354,49,o),
(402,-16,o),
(501,-16,cs),
(600,-16,o),
(648,49,o),
(648,146,cs),
(648,243,o),
(600,307,o),
(501,307,cs)
);
},
{
closed = 1;
nodes = (
(553,241,o),
(569,195,o),
(569,146,cs),
(569,96,o),
(553,51,o),
(501,51,cs),
(448,51,o),
(432,96,o),
(432,146,cs),
(432,195,o),
(448,241,o),
(501,241,cs)
);
}
);
width = 728;
}
);
unicode = 37;
},
{
glyphname = dieresiscomb;
layers = (
{
anchors = (
{
name = _top;
pos = (310,555);
}
);
layerId = m01;
shapes = (
{
closed = 1;
nodes = (
(153,637,l),
(266,637,l),
(266,750,l),
(153,750,l)
);
},
{
closed = 1;
nodes = (
(354,637,l),
(467,637,l),
(467,750,l),
(354,750,l)
);
}
);
width = 620;
}
);
unicode = 776;
},
{
glyphname = dieresiscomb_gravecomb;
layers = (
{
anchors = (
{
name = _top;
pos = (310,550);
}
);
layerId = m01;
shapes = (
{
ref = dieresiscomb;
},
{
closed = 1;
nodes = (
(195,906,l),
(195,900,l),
(277,788,l),
(347,788,l),
(292,906,l)
);
}
);
width = 620;
}
);
},
{
glyphname = dieresiscomb_acutecomb;
layers = (
{
anchors = (
{
name = _top;
pos = (310,550);
}
);
layerId = m01;
shapes = (
{
ref = dieresiscomb;
},
{
closed = 1;
nodes = (
(273,788,l),
(343,788,l),
(425,900,l),
(425,906,l),
(328,906,l)
);
}
);
width = 620;
}
);
},
{
glyphname = dieresiscomb_caroncomb;
layers = (
{
anchors = (
{
name = _top;
pos = (310,550);
}
);
layerId = m01;
shapes = (
{
ref = dieresiscomb;
},
{
closed = 1;
nodes = (
(150,932,l),
(265,788,l),
(352,788,l),
(352,794,l),
(235,932,l)
);
},
{
closed = 1;
nodes = (
(385,932,l),
(268,794,l),
(268,788,l),
(355,788,l),
(470,932,l)
);
}
);
width = 620;
}
);
},
{
glyphname = dieresiscomb_macroncomb;
layers = (
{
anchors = (
{
name = _top;
pos = (310,550);
}
);
layerId = m01;
shapes = (
{
ref = dieresiscomb;
},
{
closed = 1;
nodes = (
(180,821,l),
(440,821,l),
(440,897,l),
(180,897,l)
);
}
);
width = 620;
}
);
},
{
glyphname = dotaccentcomb;
layers = (
{
anchors = (
{
name = _top;
pos = (310,550);
}
);
layerId = m01;
shapes = (
{
closed = 1;
nodes = (
(349,628,o),
(379,658,o),
(379,697,cs),
(379,735,o),
(349,766,o),
(310,766,cs),
(273,766,o),
(241,735,o),
(241,697,cs),
(241,658,o),
(273,628,o),
(310,628,cs)
);
}
);
width = 620;
}
);
unicode = 775;
},
{
glyphname = gravecomb;
layers = (
{
anchors = (
{
name = _top;
pos = (310,550);
}
);
layerId = m01;
shapes = (
{
closed = 1;
nodes = (
(172,786,l),
(172,780,l),
(277,628,l),
(348,628,l),
(286,786,l)
);
}
);
width = 620;
}
);
unicode = 768;
},
{
glyphname = acutecomb;
layers = (
{
anchors = (
{
name = _top;
pos = (310,550);
}
);
layerId = m01;
shapes = (
{
closed = 1;
nodes = (
(272,628,l),
(343,628,l),
(448,780,l),
(448,786,l),
(334,786,l)
);
}
);
width = 620;
}
);
unicode = 769;
},
{
glyphname = hungarumlautcomb;
layers = (
{
anchors = (
{
name = _top;
pos = (310,550);
}
);
layerId = m01;
shapes = (
{
closed = 1;
nodes = (
(337,628,l),
(401,628,l),
(486,780,l),
(486,786,l),
(393,786,l)
);
},
{
closed = 1;
nodes = (
(201,628,l),
(265,628,l),
(350,780,l),
(350,786,l),
(257,786,l)
);
}
);
width = 620;
}
);
unicode = 779;
},
{
glyphname = caroncomb.alt;
layers = (
{
anchors = (
{
name = _topright;
pos = (387,750);
}
);
layerId = m01;
shapes = (
{
closed = 1;
nodes = (
(495,635,l),
(559,635,l),
(620,844,l),
(620,850,l),
(512,850,l)
);
}
);
width = 620;
}
);
},
{
glyphname = circumflexcomb;
layers = (
{
anchors = (
{
name = _top;
pos = (310,550);
}
);
layerId = m01;
shapes = (
{
closed = 1;
nodes = (
(263,786,l),
(263,780,l),
(394,628,l),
(479,628,l),
(357,786,l)
);
},
{
closed = 1;
nodes = (
(141,628,l),
(226,628,l),
(357,780,l),
(357,786,l),
(263,786,l)
);
}
);
width = 620;
}
);
unicode = 770;
},
{
glyphname = caroncomb;
layers = (
{
anchors = (
{
name = _top;
pos = (310,550);
}
);
layerId = m01;
shapes = (
{
closed = 1;
nodes = (
(357,628,l),
(357,634,l),
(226,786,l),
(141,786,l),
(263,628,l)
);
},
{
closed = 1;
nodes = (
(479,786,l),
(394,786,l),
(263,634,l),
(263,628,l),
(357,628,l)
);
}
);
width = 620;
}
);
unicode = 780;
},
{
glyphname = brevecomb;
layers = (
{
anchors = (
{
name = _top;
pos = (310,550);
}
);
layerId = m01;
shapes = (
{
closed = 1;
nodes = (
(395,787,l),
(394,728,o),
(360,691,o),
(310,691,cs),
(260,691,o),
(226,728,o),
(225,787,c),
(149,787,l),
(150,693,o),
(214,624,o),
(310,624,cs),
(406,624,o),
(470,693,o),
(471,787,c)
);
}
);
width = 620;
}
);
unicode = 774;
},
{
glyphname = ringcomb;
layers = (
{
anchors = (
{
name = _top;
pos = (310,550);
}
);
layerId = m01;
shapes = (
{
closed = 1;
nodes = (
(377,612,o),
(415,660,o),
(415,712,cs),
(415,767,o),
(378,814,o),
(310,814,cs),
(241,814,o),
(205,767,o),
(205,713,cs),
(205,660,o),
(242,612,o),
(310,612,cs)
);
},
{
closed = 1;
nodes = (
(283,667,o),
(264,688,o),
(264,713,cs),
(264,738,o),
(283,759,o),
(310,759,cs),
(337,759,o),
(356,738,o),
(356,713,cs),
(356,688,o),
(337,667,o),
(310,667,cs)
);
}
);
width = 620;
}
);
unicode = 778;
},
{
glyphname = tildecomb;
layers = (
{
anchors = (
{
name = _top;
pos = (310,550);
}
);
layerId = m01;
name = Regular;
shapes = (
{
closed = 1;
nodes = (
(442,761,l),
(381,692,o),
(384,691,o),
(332,730,cs),
(252,790,o),
(233,802,o),
(126,689,c),
(178,643,l),
(247,711,o),
(241,714,o),
(307,666,cs),
(380,613,o),
(401,607,o),
(494,717,c)
);
}
);
width = 620;
}
);
unicode = 771;
},
{
glyphname = macroncomb;
layers = (
{
anchors = (
{
name = _top;
pos = (310,550);
}
);
layerId = m01;
shapes = (
{
closed = 1;
nodes = (
(155,642,l),
(465,642,l),
(465,723,l),
(155,723,l)
);
}
);
width = 620;
}
);
unicode = 772;
},
{
glyphname = hookabovecomb;
layers = (
{
anchors = (
{
name = _top;
pos = (310,550);
}
);
layerId = m01;
name = Regular;
shapes = (
{
closed = 1;
nodes = (
(276,631,o),
(276,641,o),
(276,627,c),
(348,627,l),
(350,639,ls),
(351,647,o),
(356,651,o),
(363,656,cs),
(379,667,o),
(393,674,o),
(417,692,cs),
(443,712,o),
(443,742,o),
(426,764,cs),
(401,797,o),
(323,817,o),
(201,814,c),
(201,751,l),
(251,752,o),
(337,752,o),
(361,737,cs),
(368,732,o),
(367,722,o),
(362,718,cs),
(343,703,o),
(322,697,o),
(292,675,cs),
(283,668,o),
(276,661,o),
(276,648,cs)
);
}
);
width = 620;
}
);
unicode = 777;
},
{
glyphname = commaturnedabovecomb;
layers = (
{
anchors = (
{
name = _top;
pos = (310,550);
}
);
layerId = m01;
shapes = (
{
closed = 1;
nodes = (
(402,848,l),
(352,848,l),
(256,736,l),
(349,736,l)
);
},
{
closed = 1;
nodes = (
(270,760,o),
(240,729,o),
(240,690,cs),
(240,654,o),
(270,622,o),
(307,622,cs),
(346,622,o),
(377,654,o),
(377,690,cs),
(377,729,o),
(346,760,o),
(307,760,cs)
);
}
);
width = 620;
}
);
unicode = 786;
},
{
glyphname = horncomb;
layers = (
{
anchors = (
{
name = _topright;
pos = (243,550);
}
);
layerId = m01;
name = Regular;
shapes = (
{
closed = 1;
nodes = (
(241,500,l),
(311,499,o),
(341,513,o),
(363,535,cs),
(389,562,o),
(395,608,o),
(386,668,c),
(302,652,l),
(302,646,l),
(315,617,o),
(319,587,o),
(305,569,cs),
(289,549,o),
(265,550,o),
(241,550,c)
);
}
);
width = 620;
}
);
unicode = 795;
},
{
glyphname = dotbelowcomb;
layers = (
{
anchors = (
{
name = _bottom;
pos = (310,0);
}
);
layerId = m01;
shapes = (
{
closed = 1;
nodes = (
(349,-206,o),
(379,-176,o),
(379,-137,cs),
(379,-99,o),
(349,-68,o),
(310,-68,cs),
(273,-68,o),
(241,-99,o),
(241,-137,cs),
(241,-176,o),
(273,-206,o),
(310,-206,cs)
);
}
);
width = 620;
}
);
unicode = 803;
},
{
glyphname = dieresisbelowcomb;
layers = (
{
anchors = (
{
name = _bottom;
pos = (310,0);
}
);
layerId = m01;
shapes = (
{
closed = 1;
nodes = (
(153,-167,l),
(266,-167,l),
(266,-54,l),
(153,-54,l)
);
},
{
closed = 1;
nodes = (
(354,-167,l),
(467,-167,l),
(467,-54,l),
(354,-54,l)
);
}
);
width = 620;
}
);
unicode = 804;
},
{
glyphname = commaaccentcomb;
layers = (
{
anchors = (
{
name = _bottom;
pos = (310,0);
}
);
layerId = m01;
shapes = (
{
closed = 1;
nodes = (
(216,-296,l),
(264,-296,l),
(364,-170,l),
(261,-170,l)
);
},
{
closed = 1;
nodes = (
(350,-194,o),
(380,-163,o),
(380,-124,cs),
(380,-88,o),
(350,-56,o),
(313,-56,cs),
(274,-56,o),
(243,-88,o),
(243,-124,cs),
(243,-163,o),
(274,-194,o),
(313,-194,cs)
);
}
);
width = 620;
}
);
unicode = 806;
},
{
glyphname = cedillacomb;
layers = (
{
anchors = (
{
name = _bottom;
pos = (310,0);
}
);
layerId = m01;
name = Regular;
shapes = (
{
closed = 1;
nodes = (
(339,-82,o),
(375,-102,o),
(374,-131,cs),
(373,-164,o),
(332,-178,o),
(302,-178,cs),
(276,-178,o),
(237,-170,o),
(203,-149,c),
(178,-202,l),
(210,-223,o),
(254,-238,o),
(300,-238,cs),
(378,-238,o),
(439,-197,o),
(441,-127,cs),
(442,-87,o),
(399,-34,o),
(314,-46,c),
(362,41,l),
(297,41,l),
(242,-71,l),
(267,-106,l)
);
}
);
width = 620;
}
);
unicode = 807;
},
{
glyphname = ogonekcomb;
layers = (
{
anchors = (
{
name = _ogonek;
pos = (411,3);
}
);
layerId = m01;
name = Regular;
shapes = (
{
closed = 1;
nodes = (
(395,43,l),
(281,-3,o),
(205,-55,o),
(220,-126,cs),
(231,-180,o),
(307,-214,o),
(392,-229,c),
(408,-161,l),
(375,-153,o),
(300,-142,o),
(293,-108,cs),
(285,-71,o),
(324,-36,o),
(411,3,c)
);
}
);
width = 620;
}
);
unicode = 808;
},
{
glyphname = circumflexbelowcomb;
layers = (
{
anchors = (
{
name = _bottom;
pos = (310,0);
}
);
layerId = m01;
shapes = (
{
closed = 1;
nodes = (
(263,-65,l),
(263,-71,l),
(394,-223,l),
(479,-223,l),
(357,-65,l)
);
},
{
closed = 1;
nodes = (
(141,-223,l),
(226,-223,l),
(357,-71,l),
(357,-65,l),
(263,-65,l)
);
}
);
width = 620;
}
);
unicode = 813;
},
{
glyphname = brevebelowcomb;
layers = (
{
anchors = (
{
name = _bottom;
pos = (310,0);
}
);
layerId = m01;
shapes = (
{
closed = 1;
nodes = (
(395,-67,l),
(394,-126,o),
(360,-163,o),
(310,-163,cs),
(260,-163,o),
(226,-126,o),
(225,-67,c),
(149,-67,l),
(150,-161,o),
(214,-230,o),
(310,-230,cs),
(406,-230,o),
(470,-161,o),
(471,-67,c)
);
}
);
width = 620;
}
);
unicode = 814;
},
{
glyphname = macronbelowcomb;
layers = (
{
anchors = (
{
name = _bottom;
pos = (310,0);
}
);
layerId = m01;
shapes = (
{
closed = 1;
nodes = (
(155,-162,l),
(465,-162,l),
(465,-84,l),
(155,-84,l)
);
}
);
width = 620;
}
);
unicode = 817;
},
{
glyphname = brevecomb_acutecomb;
layers = (
{
anchors = (
{
name = _top;
pos = (310,550);
}
);
layerId = m01;
shapes = (
{
closed = 1;
nodes = (
(273,788,l),
(343,788,l),
(425,900,l),
(425,906,l),
(328,906,l)
);
},
{
ref = brevecomb;
}
);
width = 620;
}
);
},
{
glyphname = brevecomb_gravecomb;
layers = (
{
anchors = (
{
name = _top;
pos = (310,550);
}
);
layerId = m01;
shapes = (
{
ref = brevecomb;
},
{
closed = 1;
nodes = (
(195,906,l),
(195,900,l),
(277,788,l),
(347,788,l),
(292,906,l)
);
}
);
width = 620;
}
);
},
{
glyphname = brevecomb_hookabovecomb;
layers = (
{
anchors = (
{
name = _top;
pos = (310,550);
}
);
layerId = m01;
shapes = (
{
ref = brevecomb;
},
{
closed = 1;
nodes = (
(217,905,l),
(264,906,o),
(334,905,o),
(353,892,cs),
(361,887,o),
(360,879,o),
(354,875,cs),
(336,860,o),
(320,855,o),
(291,834,cs),
(283,828,o),
(276,820,o),
(276,807,cs),
(276,792,o),
(276,803,o),
(276,790,c),
(340,790,l),
(342,801,ls),
(343,808,o),
(346,813,o),
(354,819,cs),
(368,830,o),
(384,836,o),
(406,852,cs),
(430,872,o),
(430,897,o),
(414,918,cs),
(392,947,o),
(325,965,o),
(217,964,c)
);
}
);
width = 620;
}
);
},
{
glyphname = brevecomb_tildecomb;
layers = (
{
anchors = (
{
name = _top;
pos = (310,550);
}
);
layerId = m01;
shapes = (
{
closed = 1;
nodes = (
(417,937,l),
(361,880,o),
(364,883,o),
(317,915,cs),
(257,955,o),
(246,960,o),
(158,871,c),
(204,832,l),
(257,887,o),
(259,886,o),
(309,851,cs),
(366,812,o),
(383,812,o),
(462,898,c)
);
},
{
ref = brevecomb;
}
);
width = 620;
}
);
},
{
glyphname = circumflexcomb_acutecomb;
layers = (
{
anchors = (
{
name = _top;
pos = (310,550);
}
);
layerId = m01;
shapes = (
{
ref = circumflexcomb;
},
{
closed = 1;
nodes = (
(424,750,l),
(494,750,l),
(576,862,l),
(576,868,l),
(479,868,l)
);
}
);
width = 620;
}
);
},
{
glyphname = circumflexcomb_gravecomb;
layers = (
{
anchors = (
{
name = _top;
pos = (310,550);
}
);
layerId = m01;
shapes = (
{
ref = circumflexcomb;
},
{
closed = 1;
nodes = (
(356,868,l),
(356,862,l),
(438,750,l),
(508,750,l),
(453,868,l)
);
}
);
width = 620;
}
);
},
{
glyphname = circumflexcomb_hookabovecomb;
layers = (
{
anchors = (
{
name = _top;
pos = (310,550);
}
);
layerId = m01;
shapes = (
{
ref = circumflexcomb;
},
{
closed = 1;
nodes = (
(361,865,l),
(408,866,o),
(478,865,o),
(497,852,cs),
(505,847,o),
(504,839,o),
(498,835,cs),
(480,820,o),
(464,815,o),
(435,794,cs),
(427,788,o),
(420,780,o),
(420,767,cs),
(420,752,o),
(420,763,o),
(420,750,c),
(484,750,l),
(486,761,ls),
(487,768,o),
(490,773,o),
(498,779,cs),
(512,790,o),
(528,796,o),
(550,812,cs),
(574,832,o),
(574,857,o),
(558,878,cs),
(536,907,o),
(469,925,o),
(361,924,c)
);
}
);
width = 620;
}
);
},
{
glyphname = circumflexcomb_tildecomb;
layers = (
{
anchors = (
{
name = _top;
pos = (310,550);
}
);
layerId = m01;
shapes = (
{
ref = circumflexcomb;
},
{
closed = 1;
nodes = (
(417,937,l),
(361,880,o),
(364,883,o),
(317,915,cs),
(257,955,o),
(246,960,o),
(158,871,c),
(204,832,l),
(257,887,o),
(259,886,o),
(309,851,cs),
(366,812,o),
(383,812,o),
(462,898,c)
);
}
);
width = 620;
}
);
},
{
glyphname = grave;
layers = (
{
layerId = m01;
shapes = (
{
closed = 1;
nodes = (
(100,710,l),
(100,701,l),
(265,462,l),
(331,462,l),
(242,710,l)
);
}
);
width = 431;
}
);
unicode = 96;
},
{
glyphname = ringhalfleft;
layers = (
{
layerId = m01;
shapes = (
{
closed = 1;
nodes = (
);
},
{
closed = 1;
nodes = (
(272,750,l),
(161,750,o),
(100,684,o),
(100,596,cs),
(100,508,o),
(161,442,o),
(272,442,c),
(272,500,l),
(200,500,o),
(163,546,o),
(163,595,cs),
(163,649,o),
(200,692,o),
(272,692,c)
);
}
);
width = 372;
}
);
unicode = 703;
},
{
glyphname = ringhalfright;
layers = (
{
layerId = m01;
shapes = (
{
closed = 1;
nodes = (
(172,692,o),
(209,649,o),
(209,595,cs),
(209,546,o),
(172,500,o),
(100,500,c),
(100,442,l),
(211,442,o),
(272,508,o),
(272,596,cs),
(272,684,o),
(211,750,o),
(100,750,c),
(100,692,l)
);
}
);
width = 372;
}
);
unicode = 702;
},
{
glyphname = verticallinelowmod;
layers = (
{
layerId = m01;
shapes = (
{
closed = 1;
nodes = (
(100,160,l),
(100,-200,l),
(200,-200,l),
(200,160,l)
);
}
);
width = 300;
}
);
unicode = 716;
},
{
glyphname = verticallinemod;
layers = (
{
layerId = m01;
shapes = (
{
closed = 1;
nodes = (
(100,750,l),
(100,390,l),
(200,390,l),
(200,750,l)
);
}
